<?xml version="1.0" standalone="yes"?>

<svg version="1.1" viewBox="0.0 0.0 960.0 540.0" fill="none" stroke="none" stroke-linecap="square" stroke-miterlimit="10" xmlns="http://www.w3.org/2000/svg" xmlns:xlink="http://www.w3.org/1999/xlink"><clipPath id="g2134da681e_0_125.0"><path d="m0 0l960.0 0l0 540.0l-960.0 0l0 -540.0z" clip-rule="nonzero"></path></clipPath><g clip-path="url(#g2134da681e_0_125.0)"><path fill="#ffffff" d="m0 0l960.0 0l0 540.0l-960.0 0z" fill-rule="evenodd"></path><path fill="#666666" d="m25.704622 517.3655l0 -1.9301147l6.4629917 0c0.06597519 0.33996582 0.10435104 0.74523926 0.10435104 1.1835327c0 1.4474487 -0.39653206 3.2402344 -1.671627 4.51532c-1.2407589 1.2926025 -2.8268852 1.9819946 -4.9293766 1.9819946c-3.8953 6.713867E-4 -7.169882 -3.1708984 -7.169882 -7.066223c0 -3.8952637 3.274582 -7.0661926 7.169882 -7.0661926c2.1543293 0 3.6886177 0.8442383 4.8432045 1.9476624l-1.3612671 1.3612671c-0.8273983 -0.77557373 -1.9476509 -1.3787842 -3.481264 -1.3787842c-2.8437176 0 -5.0673904 2.2923584 -5.0673904 5.1360474c0 2.84375 2.2236729 5.1360474 5.0673904 5.1360474c1.8439713 0 2.8955555 -0.74121094 3.5674362 -1.4130859c0.54800797 -0.54730225 0.90818596 -1.3330078 1.0482159 -2.4074707l-4.5826645 0z" fill-rule="evenodd"></path><path fill="#666666" d="m42.187946 518.578c0 2.6195068 -2.0506554 4.550354 -4.5671806 4.550354c-2.516529 0 -4.5671844 -1.9301758 -4.5671844 -4.550354c0 -2.637085 2.0506554 -4.550354 4.5671844 -4.550354c2.5165253 0 4.5671806 1.913269 4.5671806 4.550354zm-1.9988174 0c0 -1.6373291 -1.1889191 -2.7575684 -2.5676918 -2.7575684c-1.3787727 0 -2.568367 1.1202393 -2.568367 2.7575684c0 1.619751 1.1889229 2.7575073 2.568367 2.7575073c1.3780975 0 2.5676918 -1.1377563 2.5676918 -2.7575073z" fill-rule="evenodd"></path><path fill="#666666" d="m52.151726 518.578c0 2.6195068 -2.0506554 4.550354 -4.5671806 4.550354c-2.516529 0 -4.5671844 -1.9301758 -4.5671844 -4.550354c0 -2.637085 2.0506554 -4.550354 4.5671844 -4.550354c2.5165253 0 4.5671806 1.913269 4.5671806 4.550354zm-1.9988174 0c0 -1.6373291 -1.1889191 -2.7575684 -2.5676918 -2.7575684c-1.3787727 0 -2.568367 1.1202393 -2.568367 2.7575684c0 1.619751 1.1889229 2.7575073 2.568367 2.7575073c1.3780975 0 2.5676918 -1.1377563 2.5676918 -2.7575073z" fill-rule="evenodd"></path><path fill="#666666" d="m61.70214 514.30365l0 8.169617c0 3.3607788 -1.9819832 4.739563 -4.3261642 4.739563c-2.2061691 0 -3.533104 -1.4824829 -4.03331 -2.6889038l1.7409668 -0.72369385c0.31035995 0.74121094 1.0684128 1.6204224 2.2923431 1.6204224c1.499279 0 2.430355 -0.9310303 2.430355 -2.6713257l0 -0.65509033l-0.068668365 0c-0.4483719 0.5513916 -1.3101044 1.0341187 -2.3960228 1.0341187c-2.2748375 0 -4.3605003 -1.9819946 -4.3605003 -4.532898c0 -2.5683594 2.0856628 -4.5671387 4.3605003 -4.5671387c1.0859184 0 1.9476509 0.48266602 2.3960228 1.0172119l0.068668365 0l0 -0.7418823l1.8958092 0zm-1.7577972 4.291809c0 -1.6029053 -1.0684128 -2.7750244 -2.430355 -2.7750244c-1.3787727 0 -2.5333595 1.1721191 -2.5333595 2.7750244c0 1.5854492 1.1545868 2.7407227 2.5333595 2.7407227c1.3612671 -6.713867E-4 2.430355 -1.1552734 2.430355 -2.7407227z" fill-rule="evenodd"></path><path fill="#666666" d="m65.08848 509.52237l0 13.329926l-1.999485 0l0 -13.329926l1.999485 0z" fill-rule="evenodd"></path><path fill="#666666" d="m72.80907 520.0773l1.551117 1.0340576c-0.5002136 0.74121094 -1.7066345 2.0163574 -3.791626 2.0163574c-2.5851974 0 -4.5153427 -1.9995117 -4.5153427 -4.550354c0 -2.706421 1.9476547 -4.550354 4.291832 -4.550354c2.3610153 0 3.5162735 1.8789673 3.8953018 2.8955078l0.2066803 0.51708984l-6.083969 2.5164795c0.46520233 0.9135742 1.1895981 1.3787842 2.2061691 1.3787842c1.0159073 6.713867E-4 1.7227936 -0.49884033 2.2398376 -1.2575684zm-4.774536 -1.6373291l4.067642 -1.6890869c-0.22418213 -0.5689087 -0.89606476 -0.9654541 -1.6891327 -0.9654541c-1.016571 6.713867E-4 -2.4296799 0.89678955 -2.3785095 2.654541z" fill-rule="evenodd"></path><path fill="#000000" fill-opacity="0.0" d="m533.92914 503.54068l373.85828 0l0 29.070892l-373.85828 0z" fill-rule="evenodd"></path><path fill="#666666" d="m861.0452 519.0217l0 2.234375l-0.75 0l0 -5.6875l2.109375 0q0.921875 0 1.453125 0.484375q0.53125 0.46875 0.53125 1.25q0 0.828125 -0.515625 1.28125q-0.515625 0.4375 -1.484375 0.4375l-1.34375 0zm0 -0.609375l1.359375 0q0.59375 0 0.90625 -0.28125q0.328125 -0.28125 0.328125 -0.8125q0 -0.515625 -0.328125 -0.8125q-0.3125 -0.3125 -0.875 -0.328125l-1.390625 0l0 2.234375zm6.234375 -0.734375q-0.171875 -0.03125 -0.359375 -0.03125q-0.703125 0 -0.96875 0.609375l0 3.0l-0.71875 0l0 -4.234375l0.703125 0l0.015625 0.5q0.359375 -0.578125 1.0 -0.578125q0.21875 0 0.328125 0.0625l0 0.671875zm0.47265625 1.421875q0 -0.625 0.234375 -1.109375q0.25 -0.5 0.6875 -0.765625q0.4375 -0.28125 1.0 -0.28125q0.859375 0 1.390625 0.609375q0.53125 0.59375 0.53125 1.578125l0 0.0625q0 0.609375 -0.234375 1.109375q-0.234375 0.484375 -0.671875 0.765625q-0.4375 0.265625 -1.015625 0.265625q-0.859375 0 -1.390625 -0.59375q-0.53125 -0.609375 -0.53125 -1.59375l0 -0.046875zm0.71875 0.09375q0 0.703125 0.328125 1.125q0.328125 0.421875 0.875 0.421875q0.546875 0 0.875 -0.421875q0.328125 -0.4375 0.328125 -1.21875q0 -0.6875 -0.328125 -1.125q-0.328125 -0.4375 -0.875 -0.4375q-0.546875 0 -0.875 0.4375q-0.328125 0.421875 -0.328125 1.21875zm7.609375 0q0 0.953125 -0.453125 1.546875q-0.4375 0.59375 -1.1875 0.59375q-0.765625 0 -1.21875 -0.484375l0 2.03125l-0.71875 0l0 -5.859375l0.65625 0l0.046875 0.46875q0.4375 -0.546875 1.21875 -0.546875q0.765625 0 1.203125 0.578125q0.453125 0.578125 0.453125 1.59375l0 0.078125zm-0.734375 -0.09375q0 -0.703125 -0.3125 -1.109375q-0.296875 -0.421875 -0.828125 -0.421875q-0.65625 0 -0.984375 0.578125l0 2.015625q0.328125 0.578125 1.0 0.578125q0.515625 0 0.8125 -0.40625q0.3125 -0.421875 0.3125 -1.234375zm3.6914062 -1.421875q-0.171875 -0.03125 -0.359375 -0.03125q-0.703125 0 -0.96875 0.609375l0 3.0l-0.71875 0l0 -4.234375l0.703125 0l0.015625 0.5q0.359375 -0.578125 1.0 -0.578125q0.21875 0 0.328125 0.0625l0 0.671875zm1.4414062 3.578125l-0.71875 0l0 -4.234375l0.71875 0l0 4.234375zm-0.78125 -5.34375q0 -0.1875 0.109375 -0.296875q0.109375 -0.125 0.3125 -0.125q0.21875 0 0.328125 0.125q0.109375 0.109375 0.109375 0.296875q0 0.171875 -0.109375 0.296875q-0.109375 0.109375 -0.328125 0.109375q-0.203125 0 -0.3125 -0.109375q-0.109375 -0.125 -0.109375 -0.296875zm3.6914062 5.421875q-0.859375 0 -1.40625 -0.5625q-0.53125 -0.5625 -0.53125 -1.515625l0 -0.125q0 -0.640625 0.234375 -1.125q0.25 -0.5 0.671875 -0.78125q0.4375 -0.28125 0.953125 -0.28125q0.8125 0 1.265625 0.546875q0.46875 0.546875 0.46875 1.5625l0 0.296875l-2.859375 0q0.015625 0.625 0.359375 1.015625q0.34375 0.375 0.890625 0.375q0.375 0 0.640625 -0.15625q0.265625 -0.15625 0.46875 -0.40625l0.4375 0.34375q-0.53125 0.8125 -1.59375 0.8125zm-0.078125 -3.796875q-0.4375 0 -0.734375 0.328125q-0.296875 0.3125 -0.375 0.890625l2.125 0l0 -0.0625q-0.03125 -0.546875 -0.296875 -0.84375q-0.265625 -0.3125 -0.71875 -0.3125zm3.5507812 -1.53125l0 1.015625l0.78125 0l0 0.5625l-0.78125 0l0 2.625q0 0.25 0.09375 0.375q0.109375 0.125 0.375 0.125q0.125 0 0.34375 -0.046875l0 0.59375q-0.296875 0.078125 -0.5625 0.078125q-0.484375 0 -0.734375 -0.296875q-0.234375 -0.296875 -0.234375 -0.828125l0 -2.625l-0.78125 0l0 -0.5625l0.78125 0l0 -1.015625l0.71875 0zm4.2382812 5.25q-0.0625 -0.125 -0.09375 -0.453125q-0.515625 0.53125 -1.203125 0.53125q-0.625 0 -1.03125 -0.34375q-0.40625 -0.359375 -0.40625 -0.90625q0 -0.65625 0.5 -1.015625q0.515625 -0.375 1.421875 -0.375l0.703125 0l0 -0.328125q0 -0.390625 -0.234375 -0.609375q-0.21875 -0.21875 -0.65625 -0.21875q-0.390625 0 -0.65625 0.203125q-0.265625 0.1875 -0.265625 0.453125l-0.71875 0q0 -0.3125 0.21875 -0.609375q0.234375 -0.296875 0.609375 -0.46875q0.390625 -0.171875 0.84375 -0.171875q0.734375 0 1.140625 0.375q0.421875 0.359375 0.4375 1.0l0 1.953125q0 0.578125 0.15625 0.921875l0 0.0625l-0.765625 0zm-1.203125 -0.546875q0.34375 0 0.640625 -0.171875q0.3125 -0.1875 0.453125 -0.46875l0 -0.859375l-0.5625 0q-1.328125 0 -1.328125 0.765625q0 0.34375 0.21875 0.546875q0.234375 0.1875 0.578125 0.1875zm4.9921875 -3.03125q-0.171875 -0.03125 -0.359375 -0.03125q-0.703125 0 -0.96875 0.609375l0 3.0l-0.71875 0l0 -4.234375l0.703125 0l0.015625 0.5q0.359375 -0.578125 1.0 -0.578125q0.21875 0 0.328125 0.0625l0 0.671875zm2.0507812 2.515625l0.984375 -3.171875l0.765625 0l-1.703125 4.890625q-0.390625 1.046875 -1.25 1.046875l-0.140625 0l-0.265625 -0.0625l0 -0.578125l0.203125 0.015625q0.359375 0 0.5625 -0.15625q0.203125 -0.140625 0.34375 -0.53125l0.15625 -0.4375l-1.5 -4.1875l0.78125 0l1.0625 3.171875z" fill-rule="nonzero"></path><path fill="#000000" fill-opacity="0.0" d="m18.992126 46.918636l922.01575 0l0 60.12598l-922.01575 0z" fill-rule="evenodd"></path><path fill="#666666" d="m49.179626 81.30801q-0.453125 3.9375 -2.90625 6.09375q-2.453125 2.140625 -6.515625 2.140625q-4.421875 0 -7.078125 -3.15625q-2.65625 -3.171875 -2.65625 -8.46875l0 -2.390625q0 -3.46875 1.234375 -6.09375q1.25 -2.640625 3.515625 -4.046875q2.28125 -1.4062462 5.265625 -1.4062462q3.96875 0 6.359375 2.2187462q2.390625 2.203125 2.78125 6.109375l-3.296875 0q-0.421875 -2.96875 -1.859375 -4.296875q-1.421875 -1.34375 -3.984375 -1.34375q-3.140625 0 -4.9375 2.328125q-1.78125 2.328125 -1.78125 6.609375l0 2.421875q0 4.046875 1.6875 6.4375q1.703125 2.390625 4.75 2.390625q2.734375 0 4.1875 -1.234375q1.46875 -1.234375 1.9375 -4.3125l3.296875 0zm2.932022 -1.53125q0 -2.71875 1.0625 -4.875q1.0625 -2.171875 2.96875 -3.34375q1.90625 -1.1875 4.359375 -1.1875q3.765625 0 6.09375 2.609375q2.34375 2.609375 2.34375 6.953125l0 0.21875q0 2.703125 -1.03125 4.859375q-1.03125 2.140625 -2.96875 3.34375q-1.921875 1.1875 -4.40625 1.1875q-3.765625 0 -6.09375 -2.609375q-2.328125 -2.625 -2.328125 -6.921875l0 -0.234375zm3.171875 0.375q0 3.078125 1.421875 4.953125q1.4375 1.859375 3.828125 1.859375q2.40625 0 3.828125 -1.890625q1.421875 -1.890625 1.421875 -5.296875q0 -3.03125 -1.453125 -4.921875q-1.4375 -1.890625 -3.828125 -1.890625q-2.34375 0 -3.78125 1.859375q-1.4375 1.859375 -1.4375 5.328125zm20.389893 -9.4375l0.09375 2.046875q2.03125 -2.390625 5.484375 -2.390625q3.875 0 5.28125 2.96875q0.921875 -1.328125 2.390625 -2.140625q1.484375 -0.828125 3.5 -0.828125q6.09375 0 6.1875 6.4375l0 12.390625l-3.15625 0l0 -12.203125q0 -1.984375 -0.90625 -2.96875q-0.90625 -0.984375 -3.046875 -0.984375q-1.75 0 -2.921875 1.0625q-1.15625 1.046875 -1.34375 2.828125l0 12.265625l-3.1875 0l0 -12.109375q0 -4.046875 -3.9375 -4.046875q-3.109375 0 -4.265625 2.65625l0 13.5l-3.15625 0l0 -18.484375l2.984375 0zm43.031235 9.4375q0 4.234375 -1.9375 6.8125q-1.921875 2.578125 -5.21875 2.578125q-3.375 0 -5.3125 -2.140625l0 8.90625l-3.15625 0l0 -25.59375l2.890625 0l0.15625 2.046875q1.921875 -2.390625 5.359375 -2.390625q3.34375 0 5.28125 2.515625q1.9375 2.5 1.9375 6.984375l0 0.28125zm-3.171875 -0.359375q0 -3.125 -1.328125 -4.9375q-1.328125 -1.8125 -3.65625 -1.8125q-2.875 0 -4.3125 2.546875l0 8.84375q1.421875 2.53125 4.34375 2.53125q2.28125 0 3.609375 -1.796875q1.34375 -1.8125 1.34375 -5.375zm10.42775 9.40625l-3.15625 0l0 -18.484375l3.15625 0l0 18.484375zm-3.421875 -23.390625q0 -0.78125 0.46875 -1.296875q0.46875 -0.5312462 1.390625 -0.5312462q0.9375 0 1.40625 0.5312462q0.484375 0.515625 0.484375 1.296875q0 0.765625 -0.484375 1.28125q-0.46875 0.5 -1.40625 0.5q-0.921875 0 -1.390625 -0.5q-0.46875 -0.515625 -0.46875 -1.28125zm11.832108 23.390625l-3.15625 0l0 -26.249996l3.15625 0l0 26.249996zm12.644608 0.34375q-3.75 0 -6.109375 -2.46875q-2.359375 -2.46875 -2.359375 -6.609375l0 -0.578125q0 -2.75 1.046875 -4.90625q1.046875 -2.171875 2.9375 -3.390625q1.890625 -1.21875 4.09375 -1.21875q3.609375 0 5.609375 2.375q2.0 2.375 2.0 6.796875l0 1.3125l-12.53125 0q0.0625 2.734375 1.59375 4.421875q1.53125 1.6875 3.890625 1.6875q1.671875 0 2.828125 -0.6875q1.171875 -0.6875 2.046875 -1.8125l1.921875 1.5q-2.3125 3.578125 -6.96875 3.578125zm-0.390625 -16.578125q-1.90625 0 -3.21875 1.390625q-1.296875 1.390625 -1.59375 3.90625l9.25 0l0 -0.234375q-0.125 -2.421875 -1.296875 -3.734375q-1.15625 -1.328125 -3.140625 -1.328125zm20.016617 0.578125q-0.71875 -0.125 -1.546875 -0.125q-3.109375 0 -4.234375 2.65625l0 13.125l-3.15625 0l0 -18.484375l3.078125 0l0.046875 2.125q1.5625 -2.46875 4.40625 -2.46875q0.9375 0 1.40625 0.234375l0 2.9375zm26.993896 6.609375q0 4.234375 -1.9375 6.8125q-1.921875 2.578125 -5.21875 2.578125q-3.375 0 -5.3125 -2.140625l0 8.90625l-3.15625 0l0 -25.59375l2.890625 0l0.15625 2.046875q1.921875 -2.390625 5.359375 -2.390625q3.34375 0 5.28125 2.515625q1.9375 2.5 1.9375 6.984375l0 0.28125zm-3.171875 -0.359375q0 -3.125 -1.328125 -4.9375q-1.328125 -1.8125 -3.65625 -1.8125q-2.875 0 -4.3125 2.546875l0 8.84375q1.421875 2.53125 4.34375 2.53125q2.28125 0 3.609375 -1.796875q1.34375 -1.8125 1.34375 -5.375zm10.42775 9.40625l-3.15625 0l0 -18.484375l3.15625 0l0 18.484375zm-3.421875 -23.390625q0 -0.78125 0.46875 -1.296875q0.46875 -0.5312462 1.390625 -0.5312462q0.9375 0 1.40625 0.5312462q0.484375 0.515625 0.484375 1.296875q0 0.765625 -0.484375 1.28125q-0.46875 0.5 -1.40625 0.5q-0.921875 0 -1.390625 -0.5q-0.46875 -0.515625 -0.46875 -1.28125zm24.019608 14.34375q0 4.234375 -1.9375 6.8125q-1.921875 2.578125 -5.21875 2.578125q-3.375 0 -5.3125 -2.140625l0 8.90625l-3.15625 0l0 -25.59375l2.890625 0l0.15625 2.046875q1.921875 -2.390625 5.359375 -2.390625q3.34375 0 5.28125 2.515625q1.9375 2.5 1.9375 6.984375l0 0.28125zm-3.171875 -0.359375q0 -3.125 -1.328125 -4.9375q-1.328125 -1.8125 -3.65625 -1.8125q-2.875 0 -4.3125 2.546875l0 8.84375q1.421875 2.53125 4.34375 2.53125q2.28125 0 3.609375 -1.796875q1.34375 -1.8125 1.34375 -5.375zm14.662125 9.75q-3.75 0 -6.109375 -2.46875q-2.359375 -2.46875 -2.359375 -6.609375l0 -0.578125q0 -2.75 1.046875 -4.90625q1.046875 -2.171875 2.9375 -3.390625q1.890625 -1.21875 4.09375 -1.21875q3.609375 0 5.609375 2.375q2.0 2.375 2.0 6.796875l0 1.3125l-12.53125 0q0.0625 2.734375 1.59375 4.421875q1.53125 1.6875 3.890625 1.6875q1.671875 0 2.828125 -0.6875q1.171875 -0.6875 2.046875 -1.8125l1.921875 1.5q-2.3125 3.578125 -6.96875 3.578125zm-0.390625 -16.578125q-1.90625 0 -3.21875 1.390625q-1.296875 1.390625 -1.59375 3.90625l9.25 0l0 -0.234375q-0.125 -2.421875 -1.296875 -3.734375q-1.15625 -1.328125 -3.140625 -1.328125zm14.516617 16.234375l-3.15625 0l0 -26.249996l3.15625 0l0 26.249996zm8.410233 0l-3.15625 0l0 -18.484375l3.15625 0l0 18.484375zm-3.421875 -23.390625q0 -0.78125 0.46875 -1.296875q0.46875 -0.5312462 1.390625 -0.5312462q0.9375 0 1.40625 0.5312462q0.484375 0.515625 0.484375 1.296875q0 0.765625 -0.484375 1.28125q-0.46875 0.5 -1.40625 0.5q-0.921875 0 -1.390625 -0.5q-0.46875 -0.515625 -0.46875 -1.28125zm11.394608 4.90625l0.09375 2.3125q2.125 -2.65625 5.53125 -2.65625q5.875 0 5.921875 6.609375l0 12.21875l-3.15625 0l0 -12.234375q-0.03125 -2.0 -0.921875 -2.953125q-0.890625 -0.96875 -2.796875 -0.96875q-1.53125 0 -2.703125 0.828125q-1.15625 0.8125 -1.8125 2.15625l0 13.171875l-3.15625 0l0 -18.484375l3.0 0zm23.793732 18.828125q-3.75 0 -6.109375 -2.46875q-2.359375 -2.46875 -2.359375 -6.609375l0 -0.578125q0 -2.75 1.046875 -4.90625q1.046875 -2.171875 2.9375 -3.390625q1.890625 -1.21875 4.09375 -1.21875q3.609375 0 5.609375 2.375q2.0 2.375 2.0 6.796875l0 1.3125l-12.53125 0q0.0625 2.734375 1.59375 4.421875q1.53125 1.6875 3.890625 1.6875q1.671875 0 2.828125 -0.6875q1.171875 -0.6875 2.046875 -1.8125l1.921875 1.5q-2.3125 3.578125 -6.96875 3.578125zm-0.390625 -16.578125q-1.90625 0 -3.21875 1.390625q-1.296875 1.390625 -1.59375 3.90625l9.25 0l0 -0.234375q-0.125 -2.421875 -1.296875 -3.734375q-1.15625 -1.328125 -3.140625 -1.328125zm19.53357 6.140625q0 -3.875 1.03125 -7.421875q1.046875 -3.5625 3.09375 -6.453125q2.046875 -2.9062462 4.25 -4.109371l0.65625 2.078125q-2.5 1.9218712 -4.09375 5.859371q-1.59375 3.921875 -1.75 8.796875l-0.015625 1.453125q0 6.59375 2.40625 11.453125q1.453125 2.890625 3.453125 4.53125l-0.65625 1.9375q-2.265625 -1.265625 -4.328125 -4.234375q-4.046875 -5.8125 -4.046875 -13.890625zm27.954773 10.09375l-16.3125 0l0 -2.265625l8.625 -9.578125q1.90625 -2.171875 2.625 -3.53125q0.734375 -1.359375 0.734375 -2.8125q0 -1.9375 -1.1875 -3.1875q-1.171875 -1.25 -3.140625 -1.25q-2.359375 0 -3.671875 1.34375q-1.296875 1.34375 -1.296875 3.734375l-3.15625 0q0 -3.4375 2.203125 -5.546875q2.21875 -2.1249962 5.921875 -2.1249962q3.46875 0 5.484375 1.8281212q2.03125 1.8125 2.03125 4.828125q0 3.671875 -4.6875 8.75l-6.671875 7.234375l12.5 0l0 2.578125zm18.757172 -10.609375q0 5.546875 -1.90625 8.25q-1.890625 2.703125 -5.921875 2.703125q-3.984375 0 -5.90625 -2.640625q-1.90625 -2.640625 -1.96875 -7.890625l0 -4.21875q0 -5.484375 1.890625 -8.140625q1.90625 -2.6718712 5.953125 -2.6718712q4.015625 0 5.90625 2.5781212q1.90625 2.5625 1.953125 7.921875l0 4.109375zm-3.15625 -4.328125q0 -4.015625 -1.140625 -5.84375q-1.125 -1.84375 -3.5625 -1.84375q-2.421875 0 -3.546875 1.828125q-1.109375 1.828125 -1.140625 5.625l0 5.046875q0 4.046875 1.171875 5.96875q1.171875 1.921875 3.546875 1.921875q2.34375 0 3.46875 -1.8125q1.140625 -1.8125 1.203125 -5.71875l0 -5.171875zm17.397797 14.9375l-3.171875 0l0 -21.078125l-6.375 2.34375l0 -2.875l9.0625 -3.390625l0.484375 0l0 25.0zm25.132172 -23.109375l-10.296875 23.109375l-3.3125 0l10.265625 -22.28125l-13.46875 0l0 -2.609375l16.8125 0l0 1.78125zm11.022797 13.1875q0 3.796875 -1.0 7.296875q-1.0 3.5 -3.0625 6.453125q-2.046875 2.953125 -4.3125 4.203125l-0.65625 -1.9375q2.625 -2.015625 4.21875 -6.25q1.609375 -4.25 1.640625 -9.4375l0 -0.546875q0 -3.578125 -0.765625 -6.65625q-0.75 -3.09375 -2.09375 -5.53125q-1.328125 -2.453125 -3.0 -3.8124962l0.65625 -1.9375q2.265625 1.25 4.296875 4.171871q2.046875 2.921875 3.0625 6.4375q1.015625 3.515625 1.015625 7.546875z" fill-rule="nonzero"></path><path fill="#a61c00" d="m732.4383 368.11548l149.25543 0l0 57.12622c-74.627686 0 -74.627686 21.766144 -149.25543 9.399017z" fill-rule="evenodd"></path><path stroke="#85200c" stroke-width="1.0" stroke-linejoin="round" stroke-linecap="butt" d="m732.4383 368.11548l149.25543 0l0 57.12622c-74.627686 0 -74.627686 21.766144 -149.25543 9.399017z" fill-rule="evenodd"></path><path fill="#f3f3f3" d="m776.79663 386.2861q0 1.984375 -0.671875 3.46875q-0.65625 1.46875 -1.890625 2.25q-1.21875 0.78125 -2.84375 0.78125q-1.609375 0 -2.84375 -0.78125q-1.21875 -0.78125 -1.90625 -2.234375q-0.6875 -1.453125 -0.703125 -3.375l0 -0.96875q0 -1.953125 0.671875 -3.4375q0.6875 -1.5 1.921875 -2.28125q1.234375 -0.796875 2.828125 -0.796875q1.625 0 2.859375 0.78125q1.25 0.78125 1.90625 2.28125q0.671875 1.484375 0.671875 3.453125l0 0.859375zm-1.765625 -0.875q0 -2.40625 -0.96875 -3.6875q-0.96875 -1.28125 -2.703125 -1.28125q-1.6875 0 -2.65625 1.28125q-0.96875 1.28125 -1.0 3.5625l0 1.0q0 2.328125 0.984375 3.65625q0.984375 1.328125 2.703125 1.328125q1.71875 0 2.65625 -1.25q0.953125 -1.265625 0.984375 -3.609375l0 -1.0zm12.419922 2.28125q0 2.296875 -1.046875 3.703125q-1.046875 1.390625 -2.84375 1.390625q-1.828125 0 -2.875 -1.15625l0 4.828125l-1.71875 0l0 -13.890625l1.5625 0l0.09375 1.109375q1.046875 -1.296875 2.90625 -1.296875q1.8125 0 2.859375 1.359375q1.0625 1.359375 1.0625 3.796875l0 0.15625zm-1.71875 -0.203125q0 -1.6875 -0.734375 -2.671875q-0.71875 -0.984375 -1.96875 -0.984375q-1.5625 0 -2.34375 1.375l0 4.796875q0.765625 1.375 2.359375 1.375q1.234375 0 1.953125 -0.96875q0.734375 -0.984375 0.734375 -2.921875zm6.029297 -7.359375l0 2.4375l1.875 0l0 1.3125l-1.875 0l0 6.234375q0 0.59375 0.25 0.90625q0.25 0.296875 0.859375 0.296875q0.296875 0 0.8125 -0.109375l0 1.390625q-0.671875 0.1875 -1.3125 0.1875q-1.15625 0 -1.75 -0.6875q-0.578125 -0.703125 -0.578125 -1.984375l0 -6.234375l-1.828125 0l0 -1.3125l1.828125 0l0 -2.4375l1.71875 0zm5.6255493 12.46875l-1.703125 0l0 -10.03125l1.703125 0l0 10.03125zm-1.84375 -12.703125q0 -0.421875 0.25 -0.703125q0.25 -0.28125 0.75 -0.28125q0.515625 0 0.765625 0.28125q0.265625 0.28125 0.265625 0.703125q0 0.421875 -0.265625 0.703125q-0.25 0.265625 -0.765625 0.265625q-0.5 0 -0.75 -0.265625q-0.25 -0.28125 -0.25 -0.703125zm6.121155 2.671875l0.046875 1.109375q1.109375 -1.296875 2.984375 -1.296875q2.109375 0 2.859375 1.609375q0.515625 -0.71875 1.3125 -1.15625q0.796875 -0.453125 1.890625 -0.453125q3.3125 0 3.359375 3.5l0 6.71875l-1.71875 0l0 -6.625q0 -1.078125 -0.5 -1.609375q-0.484375 -0.53125 -1.640625 -0.53125q-0.953125 0 -1.59375 0.578125q-0.625 0.5625 -0.71875 1.53125l0 6.65625l-1.734375 0l0 -6.578125q0 -2.1875 -2.140625 -2.1875q-1.6875 0 -2.3125 1.4375l0 7.328125l-1.703125 0l0 -10.03125l1.609375 0zm16.601562 10.03125l-1.703125 0l0 -10.03125l1.703125 0l0 10.03125zm-1.84375 -12.703125q0 -0.421875 0.25 -0.703125q0.25 -0.28125 0.75 -0.28125q0.515625 0 0.765625 0.28125q0.265625 0.28125 0.265625 0.703125q0 0.421875 -0.265625 0.703125q-0.25 0.265625 -0.765625 0.265625q-0.5 0 -0.75 -0.265625q-0.25 -0.28125 -0.25 -0.703125zm6.121155 11.296875l5.875 0l0 1.40625l-7.96875 0l0 -1.265625l5.546875 -7.359375l-5.453125 0l0 -1.40625l7.59375 0l0 1.203125l-5.59375 7.421875zm11.808655 1.59375q-2.046875 0 -3.328125 -1.34375q-1.28125 -1.34375 -1.28125 -3.578125l0 -0.328125q0 -1.484375 0.5625 -2.65625q0.578125 -1.171875 1.59375 -1.828125q1.03125 -0.671875 2.234375 -0.671875q1.953125 0 3.03125 1.296875q1.09375 1.28125 1.09375 3.6875l0 0.703125l-6.796875 0q0.03125 1.484375 0.859375 2.40625q0.84375 0.90625 2.125 0.90625q0.90625 0 1.53125 -0.359375q0.640625 -0.375 1.109375 -0.984375l1.046875 0.8125q-1.265625 1.9375 -3.78125 1.9375zm-0.21875 -9.0q-1.03125 0 -1.75 0.765625q-0.703125 0.75 -0.859375 2.109375l5.015625 0l0 -0.125q-0.0625 -1.3125 -0.703125 -2.03125q-0.625 -0.71875 -1.703125 -0.71875zm5.508789 3.703125q0 -2.296875 1.09375 -3.703125q1.109375 -1.40625 2.875 -1.40625q1.765625 0 2.796875 1.203125l0 -5.234375l1.71875 0l0 14.25l-1.578125 0l-0.09375 -1.078125q-1.03125 1.265625 -2.859375 1.265625q-1.75 0 -2.859375 -1.421875q-1.09375 -1.4375 -1.09375 -3.734375l0 -0.140625zm1.71875 0.203125q0 1.703125 0.703125 2.671875q0.71875 0.96875 1.953125 0.96875q1.640625 0 2.390625 -1.46875l0 -4.609375q-0.78125 -1.421875 -2.375 -1.421875q-1.25 0 -1.96875 0.984375q-0.703125 0.96875 -0.703125 2.875z" fill-rule="nonzero"></path><path fill="#f3f3f3" d="m796.972 410.31735q-0.25 2.140625 -1.578125 3.3125q-1.328125 1.15625 -3.53125 1.15625q-2.40625 0 -3.84375 -1.71875q-1.4375 -1.71875 -1.4375 -4.59375l0 -1.296875q0 -1.890625 0.671875 -3.3125q0.671875 -1.421875 1.90625 -2.1875q1.234375 -0.765625 2.859375 -0.765625q2.140625 0 3.4375 1.203125q1.3125 1.1875 1.515625 3.3125l-1.78125 0q-0.234375 -1.609375 -1.015625 -2.328125q-0.765625 -0.734375 -2.15625 -0.734375q-1.71875 0 -2.6875 1.265625q-0.96875 1.265625 -0.96875 3.59375l0 1.3125q0 2.1875 0.921875 3.5q0.921875 1.296875 2.578125 1.296875q1.484375 0 2.265625 -0.671875q0.796875 -0.671875 1.0625 -2.34375l1.78125 0zm1.4866943 -0.828125q0 -1.484375 0.578125 -2.65625q0.578125 -1.171875 1.609375 -1.8125q1.046875 -0.640625 2.375 -0.640625q2.046875 0 3.3125 1.421875q1.265625 1.40625 1.265625 3.765625l0 0.125q0 1.46875 -0.5625 2.640625q-0.5625 1.15625 -1.609375 1.8125q-1.046875 0.640625 -2.390625 0.640625q-2.046875 0 -3.3125 -1.421875q-1.265625 -1.421875 -1.265625 -3.75l0 -0.125zm1.71875 0.203125q0 1.671875 0.78125 2.6875q0.78125 1.0 2.078125 1.0q1.296875 0 2.0625 -1.015625q0.78125 -1.03125 0.78125 -2.875q0 -1.65625 -0.78125 -2.671875q-0.78125 -1.03125 -2.078125 -1.03125q-1.28125 0 -2.0625 1.015625q-0.78125 1.0 -0.78125 2.890625zm8.952393 -0.203125q0 -2.296875 1.09375 -3.703125q1.109375 -1.40625 2.875 -1.40625q1.765625 0 2.796875 1.203125l0 -5.234375l1.71875 0l0 14.25l-1.578125 0l-0.09375 -1.078125q-1.03125 1.265625 -2.859375 1.265625q-1.75 0 -2.859375 -1.421875q-1.09375 -1.4375 -1.09375 -3.734375l0 -0.140625zm1.71875 0.203125q0 1.703125 0.703125 2.671875q0.71875 0.96875 1.953125 0.96875q1.640625 0 2.390625 -1.46875l0 -4.609375q-0.78125 -1.421875 -2.375 -1.421875q-1.25 0 -1.96875 0.984375q-0.703125 0.96875 -0.703125 2.875zm13.396484 5.09375q-2.046875 0 -3.328125 -1.34375q-1.28125 -1.34375 -1.28125 -3.578125l0 -0.328125q0 -1.484375 0.5625 -2.65625q0.578125 -1.171875 1.59375 -1.828125q1.03125 -0.671875 2.234375 -0.671875q1.953125 0 3.03125 1.296875q1.09375 1.28125 1.09375 3.6875l0 0.703125l-6.796875 0q0.03125 1.484375 0.859375 2.40625q0.84375 0.90625 2.125 0.90625q0.90625 0 1.53125 -0.359375q0.640625 -0.375 1.109375 -0.984375l1.046875 0.8125q-1.265625 1.9375 -3.78125 1.9375zm-0.21875 -9.0q-1.03125 0 -1.75 0.765625q-0.703125 0.75 -0.859375 2.109375l5.015625 0l0 -0.125q-0.0625 -1.3125 -0.703125 -2.03125q-0.625 -0.71875 -1.703125 -0.71875z" fill-rule="nonzero"></path><path fill="#85200c" d="m629.3202 308.72308l0 0c0 -5.244507 4.251526 -9.496063 9.496094 -9.496063l100.031494 0c2.5184937 0 4.933838 1.0004883 6.7147217 2.7813416c1.7808838 1.7808533 2.781311 4.196228 2.781311 6.7147217l0 37.984253c0 5.2445374 -4.251526 9.496063 -9.496033 9.496063l-100.031494 0c-5.244568 0 -9.496094 -4.251526 -9.496094 -9.496063z" fill-rule="evenodd"></path><path stroke="#5b0f00" stroke-width="1.0" stroke-linejoin="round" stroke-linecap="butt" d="m629.3202 308.72308l0 0c0 -5.244507 4.251526 -9.496063 9.496094 -9.496063l100.031494 0c2.5184937 0 4.933838 1.0004883 6.7147217 2.7813416c1.7808838 1.7808533 2.781311 4.196228 2.781311 6.7147217l0 37.984253c0 5.2445374 -4.251526 9.496063 -9.496033 9.496063l-100.031494 0c-5.244568 0 -9.496094 -4.251526 -9.496094 -9.496063z" fill-rule="evenodd"></path><path fill="#f3f3f3" d="m659.9434 322.58835l-4.34375 0l0 12.046875l-1.78125 0l0 -12.046875l-4.328125 0l0 -1.46875l10.453125 0l0 1.46875zm7.725586 11.046875q-1.0 1.1875 -2.9375 1.1875q-1.609375 0 -2.453125 -0.921875q-0.84375 -0.9375 -0.84375 -2.765625l0 -6.53125l1.71875 0l0 6.484375q0 2.28125 1.84375 2.28125q1.96875 0 2.625 -1.46875l0 -7.296875l1.71875 0l0 10.03125l-1.640625 0l-0.03125 -1.0zm8.940857 -7.5q-0.390625 -0.0625 -0.84375 -0.0625q-1.6875 0 -2.296875 1.4375l0 7.125l-1.71875 0l0 -10.03125l1.671875 0l0.03125 1.15625q0.84375 -1.34375 2.390625 -1.34375q0.5 0 0.765625 0.125l0 1.59375zm9.953491 3.59375q0 2.296875 -1.0625 3.703125q-1.046875 1.390625 -2.828125 1.390625q-1.90625 0 -2.953125 -1.34375l-0.078125 1.15625l-1.578125 0l0 -14.25l1.71875 0l0 5.3125q1.03125 -1.28125 2.859375 -1.28125q1.828125 0 2.875 1.390625q1.046875 1.375 1.046875 3.765625l0 0.15625zm-1.71875 -0.203125q0 -1.75 -0.6875 -2.703125q-0.671875 -0.953125 -1.9375 -0.953125q-1.703125 0 -2.4375 1.578125l0 4.34375q0.78125 1.578125 2.453125 1.578125q1.234375 0 1.921875 -0.953125q0.6875 -0.96875 0.6875 -2.890625zm3.2324219 0q0 -1.484375 0.578125 -2.65625q0.578125 -1.171875 1.609375 -1.8125q1.046875 -0.640625 2.375 -0.640625q2.046875 0 3.3125 1.421875q1.265625 1.40625 1.265625 3.765625l0 0.125q0 1.46875 -0.5625 2.640625q-0.5625 1.15625 -1.609375 1.8125q-1.046875 0.640625 -2.390625 0.640625q-2.046875 0 -3.3125 -1.421875q-1.265625 -1.421875 -1.265625 -3.75l0 -0.125zm1.71875 0.203125q0 1.671875 0.78125 2.6875q0.78125 1.0 2.078125 1.0q1.296875 0 2.0625 -1.015625q0.78125 -1.03125 0.78125 -2.875q0 -1.65625 -0.78125 -2.671875q-0.78125 -1.03125 -2.078125 -1.03125q-1.28125 0 -2.0625 1.015625q-0.78125 1.0 -0.78125 2.890625zm17.093018 -1.0625l-5.671875 0l0 5.96875l-1.78125 0l0 -13.515625l8.375 0l0 1.46875l-6.59375 0l0 4.625l5.671875 0l0 1.453125zm8.796326 5.96875q-0.15625 -0.296875 -0.25 -1.0625q-1.1875 1.25 -2.859375 1.25q-1.484375 0 -2.4375 -0.84375q-0.9375 -0.84375 -0.9375 -2.125q0 -1.5625 1.1875 -2.4375q1.1875 -0.875 3.359375 -0.875l1.671875 0l0 -0.78125q0 -0.90625 -0.546875 -1.4375q-0.53125 -0.53125 -1.578125 -0.53125q-0.921875 0 -1.546875 0.46875q-0.625 0.46875 -0.625 1.125l-1.71875 0q0 -0.75 0.53125 -1.453125q0.53125 -0.703125 1.4375 -1.109375q0.921875 -0.40625 2.015625 -0.40625q1.734375 0 2.71875 0.875q0.984375 0.859375 1.015625 2.375l0 4.625q0 1.375 0.359375 2.1875l0 0.15625l-1.796875 0zm-2.859375 -1.3125q0.8125 0 1.53125 -0.40625q0.734375 -0.421875 1.0625 -1.09375l0 -2.0625l-1.359375 0q-3.140625 0 -3.140625 1.84375q0 0.8125 0.53125 1.265625q0.53125 0.453125 1.375 0.453125zm8.42926 -8.71875l0.0625 1.25q1.140625 -1.4375 3.0 -1.4375q3.1875 0 3.203125 3.578125l0 6.640625l-1.703125 0l0 -6.640625q-0.015625 -1.09375 -0.5 -1.609375q-0.484375 -0.515625 -1.515625 -0.515625q-0.84375 0 -1.46875 0.453125q-0.625 0.4375 -0.984375 1.15625l0 7.15625l-1.71875 0l0 -10.03125l1.625 0z" fill-rule="nonzero"></path><path fill="#0b5394" d="m743.5801 47.24803l0 0c0 -5.2445297 4.251526 -9.496063 9.496033 -9.496063l100.031494 0c2.5184937 0 4.933899 1.0004768 6.7147217 2.781334c1.7808838 1.7808571 2.781372 4.1962166 2.781372 6.7147293l0 37.984253c0 5.2445297 -4.251587 9.496063 -9.496094 9.496063l-100.031494 0c-5.244507 0 -9.496033 -4.2515335 -9.496033 -9.496063z" fill-rule="evenodd"></path><path stroke="#073763" stroke-width="1.0" stroke-linejoin="round" stroke-linecap="butt" d="m743.5801 47.24803l0 0c0 -5.2445297 4.251526 -9.496063 9.496033 -9.496063l100.031494 0c2.5184937 0 4.933899 1.0004768 6.7147217 2.781334c1.7808838 1.7808571 2.781372 4.1962166 2.781372 6.7147293l0 37.984253c0 5.2445297 -4.251587 9.496063 -9.496094 9.496063l-100.031494 0c-5.244507 0 -9.496033 -4.2515335 -9.496033 -9.496063z" fill-rule="evenodd"></path><path fill="#f3f3f3" d="m779.4123 67.87891l0 5.28125l-1.78125 0l0 -13.515625l4.984375 0q2.21875 0 3.46875 1.140625q1.265625 1.125 1.265625 3.0q0 1.96875 -1.234375 3.03125q-1.21875 1.0625 -3.515625 1.0625l-3.1875 0zm0 -1.46875l3.203125 0q1.4375 0 2.1875 -0.671875q0.765625 -0.671875 0.765625 -1.9375q0 -1.203125 -0.765625 -1.921875q-0.75 -0.734375 -2.078125 -0.765625l-3.3125 0l0 5.296875zm15.92572 6.75q-0.15625 -0.296875 -0.25 -1.0625q-1.1875 1.25 -2.859375 1.25q-1.484375 0 -2.4375 -0.84375q-0.9375 -0.84375 -0.9375 -2.125q0 -1.5625 1.1875 -2.4375q1.1875 -0.875 3.359375 -0.875l1.671875 0l0 -0.78125q0 -0.90625 -0.546875 -1.4375q-0.53125 -0.53125 -1.578125 -0.53125q-0.921875 0 -1.546875 0.46875q-0.625 0.46875 -0.625 1.125l-1.71875 0q0 -0.75 0.53125 -1.453125q0.53125 -0.703125 1.4375 -1.109375q0.921875 -0.40625 2.015625 -0.40625q1.734375 0 2.71875 0.875q0.984375 0.859375 1.015625 2.375l0 4.625q0 1.375 0.359375 2.1875l0 0.15625l-1.796875 0zm-2.859375 -1.3125q0.8125 0 1.53125 -0.40625q0.734375 -0.421875 1.0625 -1.09375l0 -2.0625l-1.359375 0q-3.140625 0 -3.140625 1.84375q0 0.8125 0.53125 1.265625q0.53125 0.453125 1.375 0.453125zm11.663574 -7.1875q-0.390625 -0.0625 -0.84375 -0.0625q-1.6875 0 -2.296875 1.4375l0 7.125l-1.71875 0l0 -10.03125l1.671875 0l0.03125 1.15625q0.84375 -1.34375 2.390625 -1.34375q0.5 0 0.765625 0.125l0 1.59375zm7.2973022 5.84375q0 -0.703125 -0.53125 -1.078125q-0.515625 -0.390625 -1.828125 -0.671875q-1.296875 -0.28125 -2.0625 -0.671875q-0.765625 -0.390625 -1.140625 -0.921875q-0.359375 -0.546875 -0.359375 -1.28125q0 -1.234375 1.046875 -2.078125q1.046875 -0.859375 2.671875 -0.859375q1.703125 0 2.765625 0.875q1.0625 0.875 1.0625 2.25l-1.71875 0q0 -0.703125 -0.609375 -1.203125q-0.59375 -0.515625 -1.5 -0.515625q-0.9375 0 -1.46875 0.40625q-0.53125 0.40625 -0.53125 1.0625q0 0.625 0.484375 0.9375q0.5 0.3125 1.78125 0.609375q1.296875 0.28125 2.09375 0.6875q0.796875 0.390625 1.171875 0.953125q0.390625 0.5625 0.390625 1.375q0 1.34375 -1.078125 2.15625q-1.078125 0.8125 -2.796875 0.8125q-1.203125 0 -2.125 -0.421875q-0.921875 -0.4375 -1.453125 -1.203125q-0.53125 -0.765625 -0.53125 -1.65625l1.71875 0q0.046875 0.859375 0.6875 1.375q0.65625 0.5 1.703125 0.5q0.984375 0 1.5625 -0.390625q0.59375 -0.390625 0.59375 -1.046875zm7.947754 2.84375q-2.046875 0 -3.328125 -1.34375q-1.28125 -1.34375 -1.28125 -3.578125l0 -0.328125q0 -1.484375 0.5625 -2.65625q0.578125 -1.171875 1.59375 -1.828125q1.03125 -0.671875 2.234375 -0.671875q1.953125 0 3.03125 1.296875q1.09375 1.28125 1.09375 3.6875l0 0.703125l-6.796875 0q0.03125 1.484375 0.859375 2.40625q0.84375 0.90625 2.125 0.90625q0.90625 0 1.53125 -0.359375q0.640625 -0.375 1.109375 -0.984375l1.046875 0.8125q-1.265625 1.9375 -3.78125 1.9375zm-0.21875 -9.0q-1.03125 0 -1.75 0.765625q-0.703125 0.75 -0.859375 2.109375l5.015625 0l0 -0.125q-0.0625 -1.3125 -0.703125 -2.03125q-0.625 -0.71875 -1.703125 -0.71875zm10.790039 0.3125q-0.390625 -0.0625 -0.84375 -0.0625q-1.6875 0 -2.296875 1.4375l0 7.125l-1.71875 0l0 -10.03125l1.671875 0l0.03125 1.15625q0.84375 -1.34375 2.390625 -1.34375q0.5 0 0.765625 0.125l0 1.59375z" fill-rule="nonzero"></path><path fill="#3d85c6" d="m537.80054 105.485565l149.25543 0l0 57.12622c-74.62775 0 -74.62775 21.766144 -149.25543 9.399017z" fill-rule="evenodd"></path><path stroke="#0b5394" stroke-width="1.0" stroke-linejoin="round" stroke-linecap="butt" d="m537.80054 105.485565l149.25543 0l0 57.12622c-74.62775 0 -74.62775 21.766144 -149.25543 9.399017z" fill-rule="evenodd"></path><path fill="#f3f3f3" d="m555.9759 126.43742l-5.65625 0l-1.28125 3.53125l-1.828125 0l5.15625 -13.515625l1.5625 0l5.15625 13.515625l-1.828125 0l-1.28125 -3.53125zm-5.125 -1.453125l4.59375 0l-2.296875 -6.328125l-2.296875 6.328125zm18.060913 0.078125q0 2.296875 -1.0625 3.703125q-1.046875 1.390625 -2.828125 1.390625q-1.90625 0 -2.953125 -1.34375l-0.078125 1.15625l-1.578125 0l0 -14.25l1.71875 0l0 5.3125q1.03125 -1.28125 2.859375 -1.28125q1.828125 0 2.875 1.390625q1.046875 1.375 1.046875 3.765625l0 0.15625zm-1.71875 -0.203125q0 -1.75 -0.6875 -2.703125q-0.671875 -0.953125 -1.9375 -0.953125q-1.703125 0 -2.4375 1.578125l0 4.34375q0.78125 1.578125 2.453125 1.578125q1.234375 0 1.921875 -0.953125q0.6875 -0.96875 0.6875 -2.890625zm9.529297 2.453125q0 -0.703125 -0.53125 -1.078125q-0.515625 -0.390625 -1.828125 -0.671875q-1.296875 -0.28125 -2.0625 -0.671875q-0.765625 -0.390625 -1.140625 -0.921875q-0.359375 -0.546875 -0.359375 -1.28125q0 -1.234375 1.046875 -2.078125q1.046875 -0.859375 2.671875 -0.859375q1.703125 0 2.765625 0.875q1.0625 0.875 1.0625 2.25l-1.71875 0q0 -0.703125 -0.609375 -1.203125q-0.59375 -0.515625 -1.5 -0.515625q-0.9375 0 -1.46875 0.40625q-0.53125 0.40625 -0.53125 1.0625q0 0.625 0.484375 0.9375q0.5 0.3125 1.78125 0.609375q1.296875 0.28125 2.09375 0.6875q0.796875 0.390625 1.171875 0.953125q0.390625 0.5625 0.390625 1.375q0 1.34375 -1.078125 2.15625q-1.078125 0.8125 -2.796875 0.8125q-1.203125 0 -2.125 -0.421875q-0.921875 -0.4375 -1.453125 -1.203125q-0.53125 -0.765625 -0.53125 -1.65625l1.71875 0q0.046875 0.859375 0.6875 1.375q0.65625 0.5 1.703125 0.5q0.984375 0 1.5625 -0.390625q0.59375 -0.390625 0.59375 -1.046875zm6.104004 -9.8125l0 2.4375l1.875 0l0 1.3125l-1.875 0l0 6.234375q0 0.59375 0.25 0.90625q0.25 0.296875 0.859375 0.296875q0.296875 0 0.8125 -0.109375l0 1.390625q-0.671875 0.1875 -1.3125 0.1875q-1.15625 0 -1.75 -0.6875q-0.578125 -0.703125 -0.578125 -1.984375l0 -6.234375l-1.828125 0l0 -1.3125l1.828125 0l0 -2.4375l1.71875 0zm8.625488 3.96875q-0.390625 -0.0625 -0.84375 -0.0625q-1.6875 0 -2.296875 1.4375l0 7.125l-1.71875 0l0 -10.03125l1.671875 0l0.03125 1.15625q0.84375 -1.34375 2.390625 -1.34375q0.5 0 0.765625 0.125l0 1.59375zm7.656616 8.5q-0.15625 -0.296875 -0.25 -1.0625q-1.1875 1.25 -2.859375 1.25q-1.484375 0 -2.4375 -0.84375q-0.9375 -0.84375 -0.9375 -2.125q0 -1.5625 1.1875 -2.4375q1.1875 -0.875 3.359375 -0.875l1.671875 0l0 -0.78125q0 -0.90625 -0.546875 -1.4375q-0.53125 -0.53125 -1.578125 -0.53125q-0.921875 0 -1.546875 0.46875q-0.625 0.46875 -0.625 1.125l-1.71875 0q0 -0.75 0.53125 -1.453125q0.53125 -0.703125 1.4375 -1.109375q0.921875 -0.40625 2.015625 -0.40625q1.734375 0 2.71875 0.875q0.984375 0.859375 1.015625 2.375l0 4.625q0 1.375 0.359375 2.1875l0 0.15625l-1.796875 0zm-2.859375 -1.3125q0.8125 0 1.53125 -0.40625q0.734375 -0.421875 1.0625 -1.09375l0 -2.0625l-1.359375 0q-3.140625 0 -3.140625 1.84375q0 0.8125 0.53125 1.265625q0.53125 0.453125 1.375 0.453125zm10.83551 0.09375q0.921875 0 1.59375 -0.546875q0.6875 -0.5625 0.765625 -1.390625l1.625 0q-0.046875 0.859375 -0.59375 1.640625q-0.546875 0.765625 -1.46875 1.234375q-0.90625 0.46875 -1.921875 0.46875q-2.046875 0 -3.265625 -1.359375q-1.203125 -1.375 -1.203125 -3.75l0 -0.296875q0 -1.46875 0.53125 -2.609375q0.546875 -1.140625 1.546875 -1.765625q1.0 -0.625 2.375 -0.625q1.6875 0 2.796875 1.015625q1.125 1.0 1.203125 2.609375l-1.625 0q-0.078125 -0.96875 -0.734375 -1.59375q-0.65625 -0.625 -1.640625 -0.625q-1.296875 0 -2.03125 0.9375q-0.71875 0.9375 -0.71875 2.71875l0 0.328125q0 1.734375 0.71875 2.671875q0.71875 0.9375 2.046875 0.9375zm8.062256 -11.25l0 2.4375l1.875 0l0 1.3125l-1.875 0l0 6.234375q0 0.59375 0.25 0.90625q0.25 0.296875 0.859375 0.296875q0.296875 0 0.8125 -0.109375l0 1.390625q-0.671875 0.1875 -1.3125 0.1875q-1.15625 0 -1.75 -0.6875q-0.578125 -0.703125 -0.578125 -1.984375l0 -6.234375l-1.828125 0l0 -1.3125l1.828125 0l0 -2.4375l1.71875 0zm12.634644 6.453125q-2.296875 -0.671875 -3.34375 -1.625q-1.03125 -0.953125 -1.03125 -2.375q0 -1.59375 1.265625 -2.625q1.28125 -1.046875 3.328125 -1.046875q1.390625 0 2.46875 0.53125q1.09375 0.53125 1.6875 1.484375q0.609375 0.953125 0.609375 2.0625l-1.796875 0q0 -1.21875 -0.78125 -1.921875q-0.765625 -0.703125 -2.1875 -0.703125q-1.328125 0 -2.0625 0.59375q-0.734375 0.578125 -0.734375 1.609375q0 0.8125 0.703125 1.390625q0.703125 0.5625 2.375 1.046875q1.6875 0.46875 2.640625 1.046875q0.953125 0.5625 1.40625 1.328125q0.46875 0.75 0.46875 1.78125q0 1.640625 -1.28125 2.640625q-1.28125 0.984375 -3.421875 0.984375q-1.390625 0 -2.609375 -0.53125q-1.203125 -0.53125 -1.859375 -1.453125q-0.640625 -0.9375 -0.640625 -2.125l1.78125 0q0 1.234375 0.90625 1.953125q0.90625 0.703125 2.421875 0.703125q1.40625 0 2.15625 -0.578125q0.75 -0.578125 0.75 -1.5625q0 -1.0 -0.703125 -1.546875q-0.6875 -0.546875 -2.515625 -1.0625zm10.099304 3.5l2.34375 -7.515625l1.84375 0l-4.046875 11.578125q-0.9375 2.5 -2.96875 2.5l-0.328125 -0.015625l-0.640625 -0.125l0 -1.390625l0.46875 0.03125q0.859375 0 1.34375 -0.359375q0.5 -0.34375 0.8125 -1.28125l0.375 -1.015625l-3.578125 -9.921875l1.875 0l2.5 7.515625zm7.1708374 -7.515625l0.0625 1.25q1.140625 -1.4375 3.0 -1.4375q3.1875 0 3.203125 3.578125l0 6.640625l-1.703125 0l0 -6.640625q-0.015625 -1.09375 -0.5 -1.609375q-0.484375 -0.515625 -1.515625 -0.515625q-0.84375 0 -1.46875 0.453125q-0.625 0.4375 -0.984375 1.15625l0 7.15625l-1.71875 0l0 -10.03125l1.625 0zm10.996826 -2.4375l0 2.4375l1.875 0l0 1.3125l-1.875 0l0 6.234375q0 0.59375 0.25 0.90625q0.25 0.296875 0.859375 0.296875q0.296875 0 0.8125 -0.109375l0 1.390625q-0.671875 0.1875 -1.3125 0.1875q-1.15625 0 -1.75 -0.6875q-0.578125 -0.703125 -0.578125 -1.984375l0 -6.234375l-1.828125 0l0 -1.3125l1.828125 0l0 -2.4375l1.71875 0zm9.969299 12.46875q-0.15625 -0.296875 -0.25 -1.0625q-1.1875 1.25 -2.859375 1.25q-1.484375 0 -2.4375 -0.84375q-0.9375 -0.84375 -0.9375 -2.125q0 -1.5625 1.1875 -2.4375q1.1875 -0.875 3.359375 -0.875l1.671875 0l0 -0.78125q0 -0.90625 -0.546875 -1.4375q-0.53125 -0.53125 -1.578125 -0.53125q-0.921875 0 -1.546875 0.46875q-0.625 0.46875 -0.625 1.125l-1.71875 0q0 -0.75 0.53125 -1.453125q0.53125 -0.703125 1.4375 -1.109375q0.921875 -0.40625 2.015625 -0.40625q1.734375 0 2.71875 0.875q0.984375 0.859375 1.015625 2.375l0 4.625q0 1.375 0.359375 2.1875l0 0.15625l-1.796875 0zm-2.859375 -1.3125q0.8125 0 1.53125 -0.40625q0.734375 -0.421875 1.0625 -1.09375l0 -2.0625l-1.359375 0q-3.140625 0 -3.140625 1.84375q0 0.8125 0.53125 1.265625q0.53125 0.453125 1.375 0.453125zm10.179199 -5.0625l2.21875 -3.65625l2.0 0l-3.28125 4.953125l3.390625 5.078125l-1.984375 0l-2.328125 -3.75l-2.3125 3.75l-2.0 0l3.390625 -5.078125l-3.28125 -4.953125l1.984375 0l2.203125 3.65625z" fill-rule="nonzero"></path><path fill="#f3f3f3" d="m604.72833 139.9218l-4.34375 0l0 12.046875l-1.78125 0l0 -12.046875l-4.328125 0l0 -1.46875l10.453125 0l0 1.46875zm6.381836 3.546875q-0.390625 -0.0625 -0.84375 -0.0625q-1.6875 0 -2.296875 1.4375l0 7.125l-1.71875 0l0 -10.03125l1.671875 0l0.03125 1.15625q0.84375 -1.34375 2.390625 -1.34375q0.5 0 0.765625 0.125l0 1.59375zm5.625366 8.6875q-2.046875 0 -3.328125 -1.34375q-1.28125 -1.34375 -1.28125 -3.578125l0 -0.328125q0 -1.484375 0.5625 -2.65625q0.578125 -1.171875 1.59375 -1.828125q1.03125 -0.671875 2.234375 -0.671875q1.953125 0 3.03125 1.296875q1.09375 1.28125 1.09375 3.6875l0 0.703125l-6.796875 0q0.03125 1.484375 0.859375 2.40625q0.84375 0.90625 2.125 0.90625q0.90625 0 1.53125 -0.359375q0.640625 -0.375 1.109375 -0.984375l1.046875 0.8125q-1.265625 1.9375 -3.78125 1.9375zm-0.21875 -9.0q-1.03125 0 -1.75 0.765625q-0.703125 0.75 -0.859375 2.109375l5.015625 0l0 -0.125q-0.0625 -1.3125 -0.703125 -2.03125q-0.625 -0.71875 -1.703125 -0.71875zm10.102539 9.0q-2.046875 0 -3.328125 -1.34375q-1.28125 -1.34375 -1.28125 -3.578125l0 -0.328125q0 -1.484375 0.5625 -2.65625q0.578125 -1.171875 1.59375 -1.828125q1.03125 -0.671875 2.234375 -0.671875q1.953125 0 3.03125 1.296875q1.09375 1.28125 1.09375 3.6875l0 0.703125l-6.796875 0q0.03125 1.484375 0.859375 2.40625q0.84375 0.90625 2.125 0.90625q0.90625 0 1.53125 -0.359375q0.640625 -0.375 1.109375 -0.984375l1.046875 0.8125q-1.265625 1.9375 -3.78125 1.9375zm-0.21875 -9.0q-1.03125 0 -1.75 0.765625q-0.703125 0.75 -0.859375 2.109375l5.015625 0l0 -0.125q-0.0625 -1.3125 -0.703125 -2.03125q-0.625 -0.71875 -1.703125 -0.71875z" fill-rule="nonzero"></path><path fill="#6aa84f" d="m320.30447 297.1916l0 0c0 -5.244507 4.251526 -9.496063 9.496063 -9.496063l94.99213 0c2.5184937 0 4.9338684 1.0004883 6.7147217 2.7813416c1.7808533 1.7808533 2.7813416 4.196228 2.7813416 6.7147217l0 37.984253c0 5.2445374 -4.2515564 9.496063 -9.496063 9.496063l-94.99213 0c-5.2445374 0 -9.496063 -4.251526 -9.496063 -9.496063z" fill-rule="evenodd"></path><path stroke="#38761d" stroke-width="1.0" stroke-linejoin="round" stroke-linecap="butt" d="m320.30447 297.1916l0 0c0 -5.244507 4.251526 -9.496063 9.496063 -9.496063l94.99213 0c2.5184937 0 4.9338684 1.0004883 6.7147217 2.7813416c1.7808533 1.7808533 2.7813416 4.196228 2.7813416 6.7147217l0 37.984253c0 5.2445374 -4.2515564 9.496063 -9.496063 9.496063l-94.99213 0c-5.2445374 0 -9.496063 -4.251526 -9.496063 -9.496063z" fill-rule="evenodd"></path><path fill="#f3f3f3" d="m349.82233 323.10373l-1.78125 0l0 -13.515625l1.78125 0l0 13.515625zm2.4802551 -5.109375q0 -2.34375 1.078125 -3.71875q1.09375 -1.390625 2.890625 -1.390625q1.828125 0 2.859375 1.296875l0.078125 -1.109375l1.578125 0l0 9.796875q0 1.9375 -1.15625 3.0625q-1.15625 1.125 -3.109375 1.125q-1.078125 0 -2.125 -0.46875q-1.03125 -0.453125 -1.578125 -1.265625l0.890625 -1.03125q1.09375 1.359375 2.6875 1.359375q1.265625 0 1.953125 -0.703125q0.703125 -0.703125 0.703125 -1.984375l0 -0.859375q-1.03125 1.1875 -2.8125 1.1875q-1.75 0 -2.84375 -1.421875q-1.09375 -1.421875 -1.09375 -3.875zm1.71875 0.203125q0 1.703125 0.703125 2.671875q0.703125 0.96875 1.953125 0.96875q1.625 0 2.375 -1.484375l0 -4.578125q-0.78125 -1.4375 -2.359375 -1.4375q-1.25 0 -1.96875 0.984375q-0.703125 0.96875 -0.703125 2.875zm10.779297 -5.125l0.0625 1.25q1.140625 -1.4375 3.0 -1.4375q3.1875 0 3.203125 3.578125l0 6.640625l-1.703125 0l0 -6.640625q-0.015625 -1.09375 -0.5 -1.609375q-0.484375 -0.515625 -1.515625 -0.515625q-0.84375 0 -1.46875 0.453125q-0.625 0.4375 -0.984375 1.15625l0 7.15625l-1.71875 0l0 -10.03125l1.625 0zm10.528107 10.03125l-1.703125 0l0 -10.03125l1.703125 0l0 10.03125zm-1.84375 -12.703125q0 -0.421875 0.25 -0.703125q0.25 -0.28125 0.75 -0.28125q0.515625 0 0.765625 0.28125q0.265625 0.28125 0.265625 0.703125q0 0.421875 -0.265625 0.703125q-0.25 0.265625 -0.765625 0.265625q-0.5 0 -0.75 -0.265625q-0.25 -0.28125 -0.25 -0.703125zm6.8399353 0.234375l0 2.4375l1.875 0l0 1.3125l-1.875 0l0 6.234375q0 0.59375 0.25 0.90625q0.25 0.296875 0.859375 0.296875q0.296875 0 0.8125 -0.109375l0 1.390625q-0.671875 0.1875 -1.3125 0.1875q-1.15625 0 -1.75 -0.6875q-0.578125 -0.703125 -0.578125 -1.984375l0 -6.234375l-1.828125 0l0 -1.3125l1.828125 0l0 -2.4375l1.71875 0zm5.6254883 12.46875l-1.703125 0l0 -10.03125l1.703125 0l0 10.03125zm-1.84375 -12.703125q0 -0.421875 0.25 -0.703125q0.25 -0.28125 0.75 -0.28125q0.515625 0 0.765625 0.28125q0.265625 0.28125 0.265625 0.703125q0 0.421875 -0.265625 0.703125q-0.25 0.265625 -0.765625 0.265625q-0.5 0 -0.75 -0.265625q-0.25 -0.28125 -0.25 -0.703125zm4.0586853 7.59375q0 -1.484375 0.578125 -2.65625q0.578125 -1.171875 1.609375 -1.8125q1.046875 -0.640625 2.375 -0.640625q2.046875 0 3.3125 1.421875q1.265625 1.40625 1.265625 3.765625l0 0.125q0 1.46875 -0.5625 2.640625q-0.5625 1.15625 -1.609375 1.8125q-1.046875 0.640625 -2.390625 0.640625q-2.046875 0 -3.3125 -1.421875q-1.265625 -1.421875 -1.265625 -3.75l0 -0.125zm1.71875 0.203125q0 1.671875 0.78125 2.6875q0.78125 1.0 2.078125 1.0q1.296875 0 2.0625 -1.015625q0.78125 -1.03125 0.78125 -2.875q0 -1.65625 -0.78125 -2.671875q-0.78125 -1.03125 -2.078125 -1.03125q-1.28125 0 -2.0625 1.015625q-0.78125 1.0 -0.78125 2.890625zm10.999268 -5.125l0.0625 1.25q1.140625 -1.4375 3.0 -1.4375q3.1875 0 3.203125 3.578125l0 6.640625l-1.703125 0l0 -6.640625q-0.015625 -1.09375 -0.5 -1.609375q-0.484375 -0.515625 -1.515625 -0.515625q-0.84375 0 -1.46875 0.453125q-0.625 0.4375 -0.984375 1.15625l0 7.15625l-1.71875 0l0 -10.03125l1.625 0z" fill-rule="nonzero"></path><path fill="#93c47d" d="m396.57742 368.12073l149.25546 0l0 57.12622c-74.62775 0 -74.62775 21.766144 -149.25546 9.399017z" fill-rule="evenodd"></path><path stroke="#6aa84f" stroke-width="1.0" stroke-linejoin="round" stroke-linecap="butt" d="m396.57742 368.12073l149.25546 0l0 57.12622c-74.62775 0 -74.62775 21.766144 -149.25546 9.399017z" fill-rule="evenodd"></path><path fill="#434343" d="m434.1525 403.60385l0 -13.515625l4.421875 0q2.203125 0 3.3125 0.921875q1.109375 0.90625 1.109375 2.6875q0 0.9375 -0.546875 1.671875q-0.53125 0.734375 -1.46875 1.125q1.09375 0.3125 1.734375 1.171875q0.640625 0.859375 0.640625 2.046875q0 1.8125 -1.1875 2.859375q-1.171875 1.03125 -3.328125 1.03125l-4.6875 0zm1.78125 -6.3125l0 4.859375l2.953125 0q1.234375 0 1.953125 -0.640625q0.71875 -0.65625 0.71875 -1.78125q0 -2.4375 -2.65625 -2.4375l-2.96875 0zm0 -1.4375l2.703125 0q1.15625 0 1.859375 -0.578125q0.703125 -0.59375 0.703125 -1.59375q0 -1.109375 -0.65625 -1.609375q-0.640625 -0.515625 -1.96875 -0.515625l-2.640625 0l0 4.296875zm12.8489685 5.234375l2.34375 -7.515625l1.84375 0l-4.046875 11.578125q-0.9375 2.5 -2.96875 2.5l-0.328125 -0.015625l-0.640625 -0.125l0 -1.390625l0.46875 0.03125q0.859375 0 1.34375 -0.359375q0.5 -0.34375 0.8125 -1.28125l0.375 -1.015625l-3.578125 -9.921875l1.875 0l2.5 7.515625zm7.873993 -9.953125l0 2.4375l1.875 0l0 1.3125l-1.875 0l0 6.234375q0 0.59375 0.25 0.90625q0.25 0.296875 0.859375 0.296875q0.296875 0 0.8125 -0.109375l0 1.390625q-0.671875 0.1875 -1.3125 0.1875q-1.15625 0 -1.75 -0.6875q-0.578125 -0.703125 -0.578125 -1.984375l0 -6.234375l-1.828125 0l0 -1.3125l1.828125 0l0 -2.4375l1.71875 0zm7.9379883 12.65625q-2.046875 0 -3.328125 -1.34375q-1.28125 -1.34375 -1.28125 -3.578125l0 -0.328125q0 -1.484375 0.5625 -2.65625q0.578125 -1.171875 1.59375 -1.828125q1.03125 -0.671875 2.234375 -0.671875q1.953125 0 3.03125 1.296875q1.09375 1.28125 1.09375 3.6875l0 0.703125l-6.796875 0q0.03125 1.484375 0.859375 2.40625q0.84375 0.90625 2.125 0.90625q0.90625 0 1.53125 -0.359375q0.640625 -0.375 1.109375 -0.984375l1.046875 0.8125q-1.265625 1.9375 -3.78125 1.9375zm-0.21875 -9.0q-1.03125 0 -1.75 0.765625q-0.703125 0.75 -0.859375 2.109375l5.015625 0l0 -0.125q-0.0625 -1.3125 -0.703125 -2.03125q-0.625 -0.71875 -1.703125 -0.71875zm9.961945 7.59375q0.921875 0 1.59375 -0.546875q0.6875 -0.5625 0.765625 -1.390625l1.625 0q-0.046875 0.859375 -0.59375 1.640625q-0.546875 0.765625 -1.46875 1.234375q-0.90625 0.46875 -1.921875 0.46875q-2.046875 0 -3.265625 -1.359375q-1.203125 -1.375 -1.203125 -3.75l0 -0.296875q0 -1.46875 0.53125 -2.609375q0.546875 -1.140625 1.546875 -1.765625q1.0 -0.625 2.375 -0.625q1.6875 0 2.796875 1.015625q1.125 1.0 1.203125 2.609375l-1.625 0q-0.078125 -0.96875 -0.734375 -1.59375q-0.65625 -0.625 -1.640625 -0.625q-1.296875 0 -2.03125 0.9375q-0.71875 0.9375 -0.71875 2.71875l0 0.328125q0 1.734375 0.71875 2.671875q0.71875 0.9375 2.046875 0.9375zm5.281006 -3.890625q0 -1.484375 0.578125 -2.65625q0.578125 -1.171875 1.609375 -1.8125q1.046875 -0.640625 2.375 -0.640625q2.046875 0 3.3125 1.421875q1.265625 1.40625 1.265625 3.765625l0 0.125q0 1.46875 -0.5625 2.640625q-0.5625 1.15625 -1.609375 1.8125q-1.046875 0.640625 -2.390625 0.640625q-2.046875 0 -3.3125 -1.421875q-1.265625 -1.421875 -1.265625 -3.75l0 -0.125zm1.71875 0.203125q0 1.671875 0.78125 2.6875q0.78125 1.0 2.078125 1.0q1.296875 0 2.0625 -1.015625q0.78125 -1.03125 0.78125 -2.875q0 -1.65625 -0.78125 -2.671875q-0.78125 -1.03125 -2.078125 -1.03125q-1.28125 0 -2.0625 1.015625q-0.78125 1.0 -0.78125 2.890625zm8.952393 -0.203125q0 -2.296875 1.09375 -3.703125q1.109375 -1.40625 2.875 -1.40625q1.765625 0 2.796875 1.203125l0 -5.234375l1.71875 0l0 14.25l-1.578125 0l-0.09375 -1.078125q-1.03125 1.265625 -2.859375 1.265625q-1.75 0 -2.859375 -1.421875q-1.09375 -1.4375 -1.09375 -3.734375l0 -0.140625zm1.71875 0.203125q0 1.703125 0.703125 2.671875q0.71875 0.96875 1.953125 0.96875q1.640625 0 2.390625 -1.46875l0 -4.609375q-0.78125 -1.421875 -2.375 -1.421875q-1.25 0 -1.96875 0.984375q-0.703125 0.96875 -0.703125 2.875zm13.396454 5.09375q-2.046875 0 -3.328125 -1.34375q-1.28125 -1.34375 -1.28125 -3.578125l0 -0.328125q0 -1.484375 0.5625 -2.65625q0.578125 -1.171875 1.59375 -1.828125q1.03125 -0.671875 2.234375 -0.671875q1.953125 0 3.03125 1.296875q1.09375 1.28125 1.09375 3.6875l0 0.703125l-6.796875 0q0.03125 1.484375 0.859375 2.40625q0.84375 0.90625 2.125 0.90625q0.90625 0 1.53125 -0.359375q0.640625 -0.375 1.109375 -0.984375l1.046875 0.8125q-1.265625 1.9375 -3.78125 1.9375zm-0.21875 -9.0q-1.03125 0 -1.75 0.765625q-0.703125 0.75 -0.859375 2.109375l5.015625 0l0 -0.125q-0.0625 -1.3125 -0.703125 -2.03125q-0.625 -0.71875 -1.703125 -0.71875z" fill-rule="nonzero"></path><path fill="#000000" fill-opacity="0.0" d="m748.3438 327.7152l58.70868 0l0 40.409454" fill-rule="evenodd"></path><path stroke="#666666" stroke-width="2.0" stroke-linejoin="round" stroke-linecap="butt" d="m748.3438 327.7152l58.70868 0l0 28.409454" fill-rule="evenodd"></path><path fill="#666666" stroke="#666666" stroke-width="2.0" stroke-linecap="butt" d="m803.749 356.12466l3.3034668 9.076202l3.3034668 -9.076202z" fill-rule="evenodd"></path><path fill="#000000" fill-opacity="0.0" d="m434.28873 316.18372l36.91336 0l0 51.93701" fill-rule="evenodd"></path><path stroke="#666666" stroke-width="2.0" stroke-linejoin="round" stroke-linecap="butt" d="m434.28873 316.18372l36.91336 0l0 39.93701" fill-rule="evenodd"></path><path fill="#666666" stroke="#666666" stroke-width="2.0" stroke-linecap="butt" d="m467.89862 356.12073l3.3034668 9.076202l3.3034668 -9.076202z" fill-rule="evenodd"></path><path fill="#000000" fill-opacity="0.0" d="m743.5801 66.24016l-131.14966 0l0 39.244095" fill-rule="evenodd"></path><path stroke="#666666" stroke-width="2.0" stroke-linejoin="round" stroke-linecap="butt" d="m743.5801 66.24016l-131.14966 0l0 27.244095" fill-rule="evenodd"></path><path fill="#666666" stroke="#666666" stroke-width="2.0" stroke-linecap="butt" d="m609.12695 93.48425l3.3034668 9.076195l3.3034668 -9.076195z" fill-rule="evenodd"></path><path fill="#ead1dc" d="m795.6378 150.0328l149.25543 0l0 57.126236c-74.62775 0 -74.62775 21.766129 -149.25543 9.399017z" fill-rule="evenodd"></path><path stroke="#d5a6bd" stroke-width="1.0" stroke-linejoin="round" stroke-linecap="butt" d="m795.6378 150.0328l149.25543 0l0 57.126236c-74.62775 0 -74.62775 21.766129 -149.25543 9.399017z" fill-rule="evenodd"></path><path fill="#434343" d="m833.56934 161.00029l1.78125 0l0 9.578125q0 1.9375 -1.171875 3.03125q-1.15625 1.09375 -3.09375 1.09375q-2.015625 0 -3.140625 -1.03125q-1.125 -1.03125 -1.125 -2.890625l1.78125 0q0 1.171875 0.640625 1.828125q0.640625 0.640625 1.84375 0.640625q1.109375 0 1.78125 -0.6875q0.6875 -0.703125 0.703125 -1.96875l0 -9.59375zm10.559387 13.515625q-0.15625 -0.296875 -0.25 -1.0625q-1.1875 1.25 -2.859375 1.25q-1.484375 0 -2.4375 -0.84375q-0.9375 -0.84375 -0.9375 -2.125q0 -1.5625 1.1875 -2.4375q1.1875 -0.875 3.359375 -0.875l1.671875 0l0 -0.78125q0 -0.90625 -0.546875 -1.4375q-0.53125 -0.53125 -1.578125 -0.53125q-0.921875 0 -1.546875 0.46875q-0.625 0.46875 -0.625 1.125l-1.71875 0q0 -0.75 0.53125 -1.453125q0.53125 -0.703125 1.4375 -1.109375q0.921875 -0.40625 2.015625 -0.40625q1.734375 0 2.71875 0.875q0.984375 0.859375 1.015625 2.375l0 4.625q0 1.375 0.359375 2.1875l0 0.15625l-1.796875 0zm-2.859375 -1.3125q0.8125 0 1.53125 -0.40625q0.734375 -0.421875 1.0625 -1.09375l0 -2.0625l-1.359375 0q-3.140625 0 -3.140625 1.84375q0 0.8125 0.53125 1.265625q0.53125 0.453125 1.375 0.453125zm10.116699 -1.015625l2.484375 -7.703125l1.75 0l-3.59375 10.03125l-1.3125 0l-3.625 -10.03125l1.75 0l2.546875 7.703125zm11.927246 2.328125q-0.15625 -0.296875 -0.25 -1.0625q-1.1875 1.25 -2.859375 1.25q-1.484375 0 -2.4375 -0.84375q-0.9375 -0.84375 -0.9375 -2.125q0 -1.5625 1.1875 -2.4375q1.1875 -0.875 3.359375 -0.875l1.671875 0l0 -0.78125q0 -0.90625 -0.546875 -1.4375q-0.53125 -0.53125 -1.578125 -0.53125q-0.921875 0 -1.546875 0.46875q-0.625 0.46875 -0.625 1.125l-1.71875 0q0 -0.75 0.53125 -1.453125q0.53125 -0.703125 1.4375 -1.109375q0.921875 -0.40625 2.015625 -0.40625q1.734375 0 2.71875 0.875q0.984375 0.859375 1.015625 2.375l0 4.625q0 1.375 0.359375 2.1875l0 0.15625l-1.796875 0zm-2.859375 -1.3125q0.8125 0 1.53125 -0.40625q0.734375 -0.421875 1.0625 -1.09375l0 -2.0625l-1.359375 0q-3.140625 0 -3.140625 1.84375q0 0.8125 0.53125 1.265625q0.53125 0.453125 1.375 0.453125zm11.05426 -4.703125q-2.296875 -0.671875 -3.34375 -1.625q-1.03125 -0.953125 -1.03125 -2.375q0 -1.59375 1.265625 -2.625q1.28125 -1.046875 3.328125 -1.046875q1.390625 0 2.46875 0.53125q1.09375 0.53125 1.6875 1.484375q0.609375 0.953125 0.609375 2.0625l-1.796875 0q0 -1.21875 -0.78125 -1.921875q-0.765625 -0.703125 -2.1875 -0.703125q-1.328125 0 -2.0625 0.59375q-0.734375 0.578125 -0.734375 1.609375q0 0.8125 0.703125 1.390625q0.703125 0.5625 2.375 1.046875q1.6875 0.46875 2.640625 1.046875q0.953125 0.5625 1.40625 1.328125q0.46875 0.75 0.46875 1.78125q0 1.640625 -1.28125 2.640625q-1.28125 0.984375 -3.421875 0.984375q-1.390625 0 -2.609375 -0.53125q-1.203125 -0.53125 -1.859375 -1.453125q-0.640625 -0.9375 -0.640625 -2.125l1.78125 0q0 1.234375 0.90625 1.953125q0.90625 0.703125 2.421875 0.703125q1.40625 0 2.15625 -0.578125q0.75 -0.578125 0.75 -1.5625q0 -1.0 -0.703125 -1.546875q-0.6875 -0.546875 -2.515625 -1.0625zm10.849243 4.796875q0.921875 0 1.59375 -0.546875q0.6875 -0.5625 0.765625 -1.390625l1.625 0q-0.046875 0.859375 -0.59375 1.640625q-0.546875 0.765625 -1.46875 1.234375q-0.90625 0.46875 -1.921875 0.46875q-2.046875 0 -3.265625 -1.359375q-1.203125 -1.375 -1.203125 -3.75l0 -0.296875q0 -1.46875 0.53125 -2.609375q0.546875 -1.140625 1.546875 -1.765625q1.0 -0.625 2.375 -0.625q1.6875 0 2.796875 1.015625q1.125 1.0 1.203125 2.609375l-1.625 0q-0.078125 -0.96875 -0.734375 -1.59375q-0.65625 -0.625 -1.640625 -0.625q-1.296875 0 -2.03125 0.9375q-0.71875 0.9375 -0.71875 2.71875l0 0.328125q0 1.734375 0.71875 2.671875q0.71875 0.9375 2.046875 0.9375zm10.593506 -7.28125q-0.390625 -0.0625 -0.84375 -0.0625q-1.6875 0 -2.296875 1.4375l0 7.125l-1.71875 0l0 -10.03125l1.671875 0l0.03125 1.15625q0.84375 -1.34375 2.390625 -1.34375q0.5 0 0.765625 0.125l0 1.59375zm3.3129272 8.5l-1.703125 0l0 -10.03125l1.703125 0l0 10.03125zm-1.84375 -12.703125q0 -0.421875 0.25 -0.703125q0.25 -0.28125 0.75 -0.28125q0.515625 0 0.765625 0.28125q0.265625 0.28125 0.265625 0.703125q0 0.421875 -0.265625 0.703125q-0.25 0.265625 -0.765625 0.265625q-0.5 0 -0.75 -0.265625q-0.25 -0.28125 -0.25 -0.703125zm12.996155 7.796875q0 2.296875 -1.046875 3.703125q-1.046875 1.390625 -2.84375 1.390625q-1.828125 0 -2.875 -1.15625l0 4.828125l-1.71875 0l0 -13.890625l1.5625 0l0.09375 1.109375q1.046875 -1.296875 2.90625 -1.296875q1.8125 0 2.859375 1.359375q1.0625 1.359375 1.0625 3.796875l0 0.15625zm-1.71875 -0.203125q0 -1.6875 -0.734375 -2.671875q-0.71875 -0.984375 -1.96875 -0.984375q-1.5625 0 -2.34375 1.375l0 4.796875q0.765625 1.375 2.359375 1.375q1.234375 0 1.953125 -0.96875q0.734375 -0.984375 0.734375 -2.921875zm6.029297 -7.359375l0 2.4375l1.875 0l0 1.3125l-1.875 0l0 6.234375q0 0.59375 0.25 0.90625q0.25 0.296875 0.859375 0.296875q0.296875 0 0.8125 -0.109375l0 1.390625q-0.671875 0.1875 -1.3125 0.1875q-1.15625 0 -1.75 -0.6875q-0.578125 -0.703125 -0.578125 -1.984375l0 -6.234375l-1.828125 0l0 -1.3125l1.828125 0l0 -2.4375l1.71875 0z" fill-rule="nonzero"></path><path fill="#434343" d="m822.93176 190.50029q-2.296875 -0.671875 -3.34375 -1.625q-1.03125 -0.953125 -1.03125 -2.375q0 -1.59375 1.265625 -2.625q1.28125 -1.046875 3.328125 -1.046875q1.390625 0 2.46875 0.53125q1.09375 0.53125 1.6875 1.484375q0.609375 0.953125 0.609375 2.0625l-1.796875 0q0 -1.21875 -0.78125 -1.921875q-0.765625 -0.703125 -2.1875 -0.703125q-1.328125 0 -2.0625 0.59375q-0.734375 0.578125 -0.734375 1.609375q0 0.8125 0.703125 1.390625q0.703125 0.5625 2.375 1.046875q1.6875 0.46875 2.640625 1.046875q0.953125 0.5625 1.40625 1.328125q0.46875 0.75 0.46875 1.78125q0 1.640625 -1.28125 2.640625q-1.28125 0.984375 -3.421875 0.984375q-1.390625 0 -2.609375 -0.53125q-1.203125 -0.53125 -1.859375 -1.453125q-0.640625 -0.9375 -0.640625 -2.125l1.78125 0q0 1.234375 0.90625 1.953125q0.90625 0.703125 2.421875 0.703125q1.40625 0 2.15625 -0.578125q0.75 -0.578125 0.75 -1.5625q0 -1.0 -0.703125 -1.546875q-0.6875 -0.546875 -2.515625 -1.0625zm6.364929 0.90625q0 -1.484375 0.578125 -2.65625q0.578125 -1.171875 1.609375 -1.8125q1.046875 -0.640625 2.375 -0.640625q2.046875 0 3.3125 1.421875q1.265625 1.40625 1.265625 3.765625l0 0.125q0 1.46875 -0.5625 2.640625q-0.5625 1.15625 -1.609375 1.8125q-1.046875 0.640625 -2.390625 0.640625q-2.046875 0 -3.3125 -1.421875q-1.265625 -1.421875 -1.265625 -3.75l0 -0.125zm1.71875 0.203125q0 1.671875 0.78125 2.6875q0.78125 1.0 2.078125 1.0q1.296875 0 2.0625 -1.015625q0.78125 -1.03125 0.78125 -2.875q0 -1.65625 -0.78125 -2.671875q-0.78125 -1.03125 -2.078125 -1.03125q-1.28125 0 -2.0625 1.015625q-0.78125 1.0 -0.78125 2.890625zm15.577393 3.90625q-1.0 1.1875 -2.9375 1.1875q-1.609375 0 -2.453125 -0.921875q-0.84375 -0.9375 -0.84375 -2.765625l0 -6.53125l1.71875 0l0 6.484375q0 2.28125 1.84375 2.28125q1.96875 0 2.625 -1.46875l0 -7.296875l1.71875 0l0 10.03125l-1.640625 0l-0.03125 -1.0zm8.940857 -7.5q-0.390625 -0.0625 -0.84375 -0.0625q-1.6875 0 -2.296875 1.4375l0 7.125l-1.71875 0l0 -10.03125l1.671875 0l0.03125 1.15625q0.84375 -1.34375 2.390625 -1.34375q0.5 0 0.765625 0.125l0 1.59375zm5.484741 7.28125q0.921875 0 1.59375 -0.546875q0.6875 -0.5625 0.765625 -1.390625l1.625 0q-0.046875 0.859375 -0.59375 1.640625q-0.546875 0.765625 -1.46875 1.234375q-0.90625 0.46875 -1.921875 0.46875q-2.046875 0 -3.265625 -1.359375q-1.203125 -1.375 -1.203125 -3.75l0 -0.296875q0 -1.46875 0.53125 -2.609375q0.546875 -1.140625 1.546875 -1.765625q1.0 -0.625 2.375 -0.625q1.6875 0 2.796875 1.015625q1.125 1.0 1.203125 2.609375l-1.625 0q-0.078125 -0.96875 -0.734375 -1.59375q-0.65625 -0.625 -1.640625 -0.625q-1.296875 0 -2.03125 0.9375q-0.71875 0.9375 -0.71875 2.71875l0 0.328125q0 1.734375 0.71875 2.671875q0.71875 0.9375 2.046875 0.9375zm9.906006 1.40625q-2.046875 0 -3.328125 -1.34375q-1.28125 -1.34375 -1.28125 -3.578125l0 -0.328125q0 -1.484375 0.5625 -2.65625q0.578125 -1.171875 1.59375 -1.828125q1.03125 -0.671875 2.234375 -0.671875q1.953125 0 3.03125 1.296875q1.09375 1.28125 1.09375 3.6875l0 0.703125l-6.796875 0q0.03125 1.484375 0.859375 2.40625q0.84375 0.90625 2.125 0.90625q0.90625 0 1.53125 -0.359375q0.640625 -0.375 1.109375 -0.984375l1.046875 0.8125q-1.265625 1.9375 -3.78125 1.9375zm-0.21875 -9.0q-1.03125 0 -1.75 0.765625q-0.703125 0.75 -0.859375 2.109375l5.015625 0l0 -0.125q-0.0625 -1.3125 -0.703125 -2.03125q-0.625 -0.71875 -1.703125 -0.71875zm20.75232 4.53125q-0.25 2.140625 -1.578125 3.3125q-1.328125 1.15625 -3.53125 1.15625q-2.40625 0 -3.84375 -1.71875q-1.4375 -1.71875 -1.4375 -4.59375l0 -1.296875q0 -1.890625 0.671875 -3.3125q0.671875 -1.421875 1.90625 -2.1875q1.234375 -0.765625 2.859375 -0.765625q2.140625 0 3.4375 1.203125q1.3125 1.1875 1.515625 3.3125l-1.78125 0q-0.234375 -1.609375 -1.015625 -2.328125q-0.765625 -0.734375 -2.15625 -0.734375q-1.71875 0 -2.6875 1.265625q-0.96875 1.265625 -0.96875 3.59375l0 1.3125q0 2.1875 0.921875 3.5q0.921875 1.296875 2.578125 1.296875q1.484375 0 2.265625 -0.671875q0.796875 -0.671875 1.0625 -2.34375l1.78125 0zm1.4866943 -0.828125q0 -1.484375 0.578125 -2.65625q0.578125 -1.171875 1.609375 -1.8125q1.046875 -0.640625 2.375 -0.640625q2.046875 0 3.3125 1.421875q1.265625 1.40625 1.265625 3.765625l0 0.125q0 1.46875 -0.5625 2.640625q-0.5625 1.15625 -1.609375 1.8125q-1.046875 0.640625 -2.390625 0.640625q-2.046875 0 -3.3125 -1.421875q-1.265625 -1.421875 -1.265625 -3.75l0 -0.125zm1.71875 0.203125q0 1.671875 0.78125 2.6875q0.78125 1.0 2.078125 1.0q1.296875 0 2.0625 -1.015625q0.78125 -1.03125 0.78125 -2.875q0 -1.65625 -0.78125 -2.671875q-0.78125 -1.03125 -2.078125 -1.03125q-1.28125 0 -2.0625 1.015625q-0.78125 1.0 -0.78125 2.890625zm8.952393 -0.203125q0 -2.296875 1.09375 -3.703125q1.109375 -1.40625 2.875 -1.40625q1.765625 0 2.796875 1.203125l0 -5.234375l1.71875 0l0 14.25l-1.578125 0l-0.09375 -1.078125q-1.03125 1.265625 -2.859375 1.265625q-1.75 0 -2.859375 -1.421875q-1.09375 -1.4375 -1.09375 -3.734375l0 -0.140625zm1.71875 0.203125q0 1.703125 0.703125 2.671875q0.71875 0.96875 1.953125 0.96875q1.640625 0 2.390625 -1.46875l0 -4.609375q-0.78125 -1.421875 -2.375 -1.421875q-1.25 0 -1.96875 0.984375q-0.703125 0.96875 -0.703125 2.875zm13.396484 5.09375q-2.046875 0 -3.328125 -1.34375q-1.28125 -1.34375 -1.28125 -3.578125l0 -0.328125q0 -1.484375 0.5625 -2.65625q0.578125 -1.171875 1.59375 -1.828125q1.03125 -0.671875 2.234375 -0.671875q1.953125 0 3.03125 1.296875q1.09375 1.28125 1.09375 3.6875l0 0.703125l-6.796875 0q0.03125 1.484375 0.859375 2.40625q0.84375 0.90625 2.125 0.90625q0.90625 0 1.53125 -0.359375q0.640625 -0.375 1.109375 -0.984375l1.046875 0.8125q-1.265625 1.9375 -3.78125 1.9375zm-0.21875 -9.0q-1.03125 0 -1.75 0.765625q-0.703125 0.75 -0.859375 2.109375l5.015625 0l0 -0.125q-0.0625 -1.3125 -0.703125 -2.03125q-0.625 -0.71875 -1.703125 -0.71875z" fill-rule="nonzero"></path><path fill="#000000" fill-opacity="0.0" d="m584.1417 228.63518l-0.94488525 229.98424" fill-rule="evenodd"></path><path stroke="#b7b7b7" stroke-width="2.0" stroke-linejoin="round" stroke-linecap="butt" stroke-dasharray="8.0,6.0" d="m584.1417 228.63518l-0.94488525 229.98424" fill-rule="evenodd"></path><path fill="#000000" fill-opacity="0.0" d="m629.3202 458.6273l168.94489 0l0 45.606293l-168.94489 0z" fill-rule="evenodd"></path><path fill="#b7b7b7" d="m674.13837 481.82983q0 2.515625 -0.890625 4.421875q-0.890625 1.890625 -2.5625 2.921875q-1.65625 1.03125 -3.796875 1.03125q-2.125 0 -3.796875 -1.015625q-1.65625 -1.03125 -2.578125 -2.921875q-0.90625 -1.890625 -0.90625 -4.34375l0 -0.84375q0 -2.53125 0.90625 -4.4375q0.90625 -1.921875 2.5625 -2.9375q1.65625 -1.03125 3.78125 -1.03125q2.140625 0 3.796875 1.03125q1.65625 1.015625 2.5625 2.9375q0.921875 1.90625 0.921875 4.421875l0 0.765625zm-3.5625 -0.78125q0 -2.6875 -0.96875 -4.078125q-0.953125 -1.390625 -2.734375 -1.390625q-1.78125 0 -2.75 1.375q-0.953125 1.375 -0.953125 4.03125l0 0.84375q0 2.609375 0.953125 4.046875q0.96875 1.4375 2.765625 1.4375q1.765625 0 2.71875 -1.375q0.953125 -1.390625 0.96875 -4.0625l0 -0.828125zm17.304688 2.703125q0 2.921875 -1.328125 4.6875q-1.328125 1.765625 -3.59375 1.765625q-1.921875 0 -3.109375 -1.34375l0 5.984375l-3.390625 0l0 -17.5625l3.140625 0l0.125 1.25q1.234375 -1.484375 3.203125 -1.484375q2.34375 0 3.640625 1.734375q1.3125 1.734375 1.3125 4.78125l0 0.1875zm-3.390625 -0.25q0 -1.765625 -0.625 -2.71875q-0.625 -0.96875 -1.828125 -0.96875q-1.59375 0 -2.1875 1.21875l0 5.1875q0.625 1.25 2.21875 1.25q2.421875 0 2.421875 -3.96875zm9.542969 -9.328125l0 3.109375l2.171875 0l0 2.484375l-2.171875 0l0 6.328125q0 0.703125 0.265625 1.015625q0.265625 0.296875 1.03125 0.296875q0.5625 0 1.0 -0.078125l0 2.5625q-1.0 0.3125 -2.046875 0.3125q-3.5625 0 -3.640625 -3.59375l0 -6.84375l-1.84375 0l0 -2.484375l1.84375 0l0 -3.109375l3.390625 0zm7.625 15.796875l-3.390625 0l0 -12.6875l3.390625 0l0 12.6875zm-3.59375 -15.96875q0 -0.75 0.5 -1.234375q0.515625 -0.5 1.390625 -0.5q0.875 0 1.390625 0.5q0.515625 0.484375 0.515625 1.234375q0 0.78125 -0.53125 1.28125q-0.515625 0.484375 -1.375 0.484375q-0.84375 0 -1.375 -0.484375q-0.515625 -0.5 -0.515625 -1.28125zm9.566406 3.28125l0.09375 1.421875q1.359375 -1.65625 3.65625 -1.65625q2.4375 0 3.359375 1.9375q1.328125 -1.9375 3.8125 -1.9375q2.0625 0 3.0625 1.203125q1.015625 1.203125 1.015625 3.625l0 8.09375l-3.40625 0l0 -8.09375q0 -1.078125 -0.421875 -1.5625q-0.421875 -0.5 -1.484375 -0.5q-1.53125 0 -2.109375 1.453125l0.015625 8.703125l-3.390625 0l0 -8.078125q0 -1.09375 -0.4375 -1.578125q-0.4375 -0.5 -1.46875 -0.5q-1.453125 0 -2.09375 1.1875l0 8.96875l-3.390625 0l0 -12.6875l3.1875 0zm21.167969 12.6875l-3.390625 0l0 -12.6875l3.390625 0l0 12.6875zm-3.59375 -15.96875q0 -0.75 0.5 -1.234375q0.515625 -0.5 1.390625 -0.5q0.875 0 1.390625 0.5q0.515625 0.484375 0.515625 1.234375q0 0.78125 -0.53125 1.28125q-0.515625 0.484375 -1.375 0.484375q-0.84375 0 -1.375 -0.484375q-0.515625 -0.5 -0.515625 -1.28125zm10.269531 13.234375l6.203125 0l0 2.734375l-10.515625 0l0 -2.0625l5.953125 -7.875l-5.78125 0l0 -2.75l10.15625 0l0 2.015625l-6.015625 7.9375zm14.1640625 2.96875q-2.796875 0 -4.546875 -1.703125q-1.75 -1.71875 -1.75 -4.5625l0 -0.328125q0 -1.921875 0.734375 -3.421875q0.75 -1.5 2.09375 -2.3125q1.359375 -0.828125 3.09375 -0.828125q2.59375 0 4.09375 1.640625q1.5 1.640625 1.5 4.65625l0 1.390625l-8.078125 0q0.15625 1.234375 0.984375 1.984375q0.828125 0.75 2.09375 0.75q1.953125 0 3.0625 -1.421875l1.65625 1.875q-0.75 1.078125 -2.0625 1.6875q-1.296875 0.59375 -2.875 0.59375zm-0.390625 -10.40625q-1.0 0 -1.640625 0.6875q-0.625 0.671875 -0.796875 1.9375l4.71875 0l0 -0.265625q-0.03125 -1.125 -0.625 -1.734375q-0.578125 -0.625 -1.65625 -0.625zm7.0039062 3.734375q0 -2.96875 1.328125 -4.71875q1.328125 -1.765625 3.640625 -1.765625q1.84375 0 3.046875 1.390625l0 -6.46875l3.40625 0l0 18.0l-3.0625 0l-0.15625 -1.34375q-1.265625 1.578125 -3.265625 1.578125q-2.234375 0 -3.59375 -1.765625q-1.34375 -1.765625 -1.34375 -4.90625zm3.375 0.25q0 1.78125 0.625 2.734375q0.625 0.9375 1.8125 0.9375q1.5625 0 2.203125 -1.3125l0 -5.015625q-0.625 -1.3125 -2.1875 -1.3125q-2.453125 0 -2.453125 3.96875z" fill-rule="nonzero"></path><path fill="#000000" fill-opacity="0.0" d="m355.30447 458.61942l168.94485 0l0 45.606293l-168.94485 0z" fill-rule="evenodd"></path><path fill="#b7b7b7" d="m384.98395 489.96255l-3.515625 0l0 -17.0625l3.515625 0l0 17.0625zm6.1523438 -12.6875l0.109375 1.46875q1.359375 -1.703125 3.640625 -1.703125q2.015625 0 3.0 1.1875q0.984375 1.1875 1.0 3.546875l0 8.1875l-3.375 0l0 -8.109375q0 -1.078125 -0.46875 -1.5625q-0.46875 -0.484375 -1.5625 -0.484375q-1.4375 0 -2.140625 1.21875l0 8.9375l-3.390625 0l0 -12.6875l3.1875 0zm14.378906 -3.109375l0 3.109375l2.171875 0l0 2.484375l-2.171875 0l0 6.328125q0 0.703125 0.265625 1.015625q0.265625 0.296875 1.03125 0.296875q0.5625 0 1.0 -0.078125l0 2.5625q-1.0 0.3125 -2.046875 0.3125q-3.5625 0 -3.640625 -3.59375l0 -6.84375l-1.84375 0l0 -2.484375l1.84375 0l0 -3.109375l3.390625 0zm9.890625 16.03125q-2.796875 0 -4.546875 -1.703125q-1.75 -1.71875 -1.75 -4.5625l0 -0.328125q0 -1.921875 0.734375 -3.421875q0.75 -1.5 2.09375 -2.3125q1.359375 -0.828125 3.09375 -0.828125q2.59375 0 4.09375 1.640625q1.5 1.640625 1.5 4.65625l0 1.390625l-8.078125 0q0.15625 1.234375 0.984375 1.984375q0.828125 0.75 2.09375 0.75q1.953125 0 3.0625 -1.421875l1.65625 1.875q-0.75 1.078125 -2.0625 1.6875q-1.296875 0.59375 -2.875 0.59375zm-0.390625 -10.40625q-1.0 0 -1.640625 0.6875q-0.625 0.671875 -0.796875 1.9375l4.71875 0l0 -0.265625q-0.03125 -1.125 -0.625 -1.734375q-0.578125 -0.625 -1.65625 -0.625zm14.644531 0.671875q-0.6875 -0.09375 -1.21875 -0.09375q-1.921875 0 -2.515625 1.296875l0 8.296875l-3.390625 0l0 -12.6875l3.203125 0l0.09375 1.515625q1.015625 -1.75 2.828125 -1.75q0.5625 0 1.046875 0.15625l-0.046875 3.265625zm13.050781 3.28125q0 2.921875 -1.328125 4.6875q-1.328125 1.765625 -3.59375 1.765625q-1.921875 0 -3.109375 -1.34375l0 5.984375l-3.390625 0l0 -17.5625l3.140625 0l0.125 1.25q1.234375 -1.484375 3.203125 -1.484375q2.34375 0 3.640625 1.734375q1.3125 1.734375 1.3125 4.78125l0 0.1875zm-3.390625 -0.25q0 -1.765625 -0.625 -2.71875q-0.625 -0.96875 -1.828125 -0.96875q-1.59375 0 -2.1875 1.21875l0 5.1875q0.625 1.25 2.21875 1.25q2.421875 0 2.421875 -3.96875zm12.605469 -3.03125q-0.6875 -0.09375 -1.21875 -0.09375q-1.921875 0 -2.515625 1.296875l0 8.296875l-3.390625 0l0 -12.6875l3.203125 0l0.09375 1.515625q1.015625 -1.75 2.828125 -1.75q0.5625 0 1.046875 0.15625l-0.046875 3.265625zm7.4726562 9.734375q-2.796875 0 -4.546875 -1.703125q-1.75 -1.71875 -1.75 -4.5625l0 -0.328125q0 -1.921875 0.734375 -3.421875q0.75 -1.5 2.09375 -2.3125q1.359375 -0.828125 3.09375 -0.828125q2.59375 0 4.09375 1.640625q1.5 1.640625 1.5 4.65625l0 1.390625l-8.078125 0q0.15625 1.234375 0.984375 1.984375q0.828125 0.75 2.09375 0.75q1.953125 0 3.0625 -1.421875l1.65625 1.875q-0.75 1.078125 -2.0625 1.6875q-1.296875 0.59375 -2.875 0.59375zm-0.390625 -10.40625q-1.0 0 -1.640625 0.6875q-0.625 0.671875 -0.796875 1.9375l4.71875 0l0 -0.265625q-0.03125 -1.125 -0.625 -1.734375q-0.578125 -0.625 -1.65625 -0.625zm11.582031 -5.625l0 3.109375l2.171875 0l0 2.484375l-2.171875 0l0 6.328125q0 0.703125 0.265625 1.015625q0.265625 0.296875 1.03125 0.296875q0.5625 0 1.0 -0.078125l0 2.5625q-1.0 0.3125 -2.046875 0.3125q-3.5625 0 -3.640625 -3.59375l0 -6.84375l-1.84375 0l0 -2.484375l1.84375 0l0 -3.109375l3.390625 0zm9.890625 16.03125q-2.796875 0 -4.546875 -1.703125q-1.75 -1.71875 -1.75 -4.5625l0 -0.328125q0 -1.921875 0.734375 -3.421875q0.75 -1.5 2.09375 -2.3125q1.359375 -0.828125 3.09375 -0.828125q2.59375 0 4.09375 1.640625q1.5 1.640625 1.5 4.65625l0 1.390625l-8.078125 0q0.15625 1.234375 0.984375 1.984375q0.828125 0.75 2.09375 0.75q1.953125 0 3.0625 -1.421875l1.65625 1.875q-0.75 1.078125 -2.0625 1.6875q-1.296875 0.59375 -2.875 0.59375zm-0.390625 -10.40625q-1.0 0 -1.640625 0.6875q-0.625 0.671875 -0.796875 1.9375l4.71875 0l0 -0.265625q-0.03125 -1.125 -0.625 -1.734375q-0.578125 -0.625 -1.65625 -0.625zm7.0039062 3.734375q0 -2.96875 1.328125 -4.71875q1.328125 -1.765625 3.640625 -1.765625q1.84375 0 3.046875 1.390625l0 -6.46875l3.40625 0l0 18.0l-3.0625 0l-0.15625 -1.34375q-1.265625 1.578125 -3.265625 1.578125q-2.234375 0 -3.59375 -1.765625q-1.34375 -1.765625 -1.34375 -4.90625zm3.375 0.25q0 1.78125 0.625 2.734375q0.625 0.9375 1.8125 0.9375q1.5625 0 2.203125 -1.3125l0 -5.015625q-0.625 -1.3125 -2.1875 -1.3125q-2.453125 0 -2.453125 3.96875z" fill-rule="nonzero"></path><path fill="#000000" fill-opacity="0.0" d="m870.2655 150.0328c0 -13.826218 -16.795288 -20.739044 -33.590515 -27.652435c-16.795288 -6.9133835 -33.590576 -13.827324 -33.590576 -27.654648" fill-rule="evenodd"></path><path stroke="#666666" stroke-width="2.0" stroke-linejoin="round" stroke-linecap="butt" stroke-dasharray="16.0,6.0" d="m870.2655 150.0328c0 -13.826218 -16.795288 -20.739044 -33.590576 -27.652435c-8.397644 -3.456688 -16.795227 -6.9135284 -23.093506 -11.234596c-1.5745239 -1.0802689 -3.0178833 -2.2145462 -4.297241 -3.4163513c-0.31976318 -0.3004532 -0.62939453 -0.6051178 -0.92822266 -0.91423035c-0.14935303 -0.15454102 -0.29608154 -0.31020355 -0.44000244 -0.46699524c-0.072021484 -0.07839203 -0.14331055 -0.15706635 -0.21392822 -0.23603058l-0.20153809 -0.22856903" fill-rule="evenodd"></path><path fill="#666666" stroke="#666666" stroke-width="2.0" stroke-linecap="butt" d="m810.5721 104.667915l-6.411682 -7.223572l0.26843262 9.654953z" fill-rule="evenodd"></path><path fill="#000000" fill-opacity="0.0" d="m612.4282 172.0108c0 29.871613 -58.77948 45.282593 -117.55905 59.743225c-58.77951 14.460632 -117.55905 27.970917 -117.55905 55.941833" fill-rule="evenodd"></path><path stroke="#666666" stroke-width="2.0" stroke-linejoin="round" stroke-linecap="butt" stroke-dasharray="16.0,6.0" d="m612.4282 172.0108c0 29.871613 -58.77954 45.282608 -117.55905 59.74324c-29.38977 7.230316 -58.77951 14.223038 -80.82184 22.904541c-11.021179 4.340744 -20.205475 9.103714 -26.634491 14.529648c-1.6072388 1.3564758 -3.0422668 2.754425 -4.290802 4.1975403c-0.62420654 0.7215576 -1.2018433 1.4544373 -1.7310181 2.1990662c-0.1322937 0.18612671 -0.26156616 0.37304688 -0.38772583 0.56066895l-0.07269287 0.10952759" fill-rule="evenodd"></path><path fill="#666666" stroke="#666666" stroke-width="2.0" stroke-linecap="butt" d="m377.7811 275.25836l0.41116333 9.649933l5.8878784 -7.656555z" fill-rule="evenodd"></path><path fill="#000000" fill-opacity="0.0" d="m724.9635 434.3884c-31.2724 26.530457 -98.6673 35.16516 -149.79944 28.661957c-25.148804 -3.1985168 -45.66931 -15.808624 -63.804474 -27.339111" fill-rule="evenodd"></path><path stroke="#ea4335" stroke-width="2.0" stroke-linejoin="round" stroke-linecap="butt" stroke-dasharray="8.0,6.0" d="m724.9635 434.3884c-31.2724 26.530457 -98.6673 35.16516 -149.79944 28.661957c-12.574402 -1.5992432 -23.99176 -5.551422 -34.53235 -10.545074c-5.2703247 -2.4968262 -10.321472 -5.253998 -15.188477 -8.107697c-1.2167358 -0.7134094 -2.421997 -1.4328003 -3.616272 -2.1557312l-0.28826904 -0.17565918" fill-rule="evenodd"></path><path fill="#ea4335" stroke="#ea4335" stroke-width="2.0" stroke-linecap="butt" d="m523.28815 439.26398l-9.448425 -2.0043335l5.949524 7.608734z" fill-rule="evenodd"></path><path fill="#000000" fill-opacity="0.0" d="m530.0315 458.65872l126.456665 -0.03149414l0 31.84253l-126.456665 0.03149414z" fill-rule="evenodd"></path><path fill="#ea4335" d="m553.45905 480.43414l0 -11.375l3.5 -8.544922E-4q1.5 -3.9672852E-4 2.6875 0.6712036q1.1875 0.6715698 1.84375 1.9214172q0.671875 1.2498169 0.671875 2.827942l0 0.53125q0 1.578125 -0.65625 2.8126526q-0.65625 1.2345581 -1.84375 1.9223328q-1.1875 0.6721802 -2.671875 0.6881714l-3.53125 8.8500977E-4zm2.34375 -9.484955l0 7.59375l1.140625 -2.746582E-4q1.375 -3.6621094E-4 2.09375 -0.8911438q0.734375 -0.9064331 0.75 -2.5783386l0 -0.59375q0 -1.734375 -0.71875 -2.624817q-0.71875 -0.9060669 -2.109375 -0.9057007l-1.15625 2.746582E-4zm11.8046875 9.637695q-1.859375 4.5776367E-4 -3.03125 -1.1398926q-1.171875 -1.1403198 -1.171875 -3.0465698l0 -0.21875q0 -1.265625 0.484375 -2.265747q0.5 -1.0157471 1.40625 -1.5472412q0.90625 -0.5470886 2.0625 -0.5473633q1.734375 -4.5776367E-4 2.71875 1.0930481q1.0 1.0935059 1.0 3.0935059l0 0.921875l-5.375 0.0013427734q0.109375 0.8280945 0.65625 1.3279724q0.546875 0.4998474 1.390625 0.4996338q1.3125 -3.0517578E-4 2.046875 -0.9379883l1.109375 1.2341003q-0.515625 0.7188721 -1.390625 1.1253357q-0.859375 0.40646362 -1.90625 0.40673828zm-0.265625 -6.937439q-0.671875 1.5258789E-4 -1.09375 0.45339966q-0.40625 0.45321655 -0.53125 1.2969971l3.140625 -7.9345703E-4l0 -0.1875q-0.015625 -0.7499695 -0.40625 -1.1561279q-0.390625 -0.40615845 -1.109375 -0.40597534zm4.6640625 2.4675903q0 -1.25 0.484375 -2.234497q0.484375 -0.9844971 1.390625 -1.5159912q0.921875 -0.5470886 2.125 -0.5473938q1.703125 -4.272461E-4 2.78125 1.0461731q1.09375 1.0466003 1.21875 2.8434448l0.015625 0.578125q0 1.9375 -1.09375 3.1252747q-1.078125 1.1721497 -2.90625 1.1726074q-1.828125 4.5776367E-4 -2.921875 -1.1711426q-1.09375 -1.1716003 -1.09375 -3.1872253l0 -0.109375zm2.265625 0.17129517q0 1.203125 0.453125 1.8436584q0.453125 0.6248779 1.296875 0.6246643q0.8125 -2.1362305E-4 1.265625 -0.6253052q0.46875 -0.6251221 0.46875 -2.015747q0 -1.171875 -0.46875 -1.8123779q-0.453125 -0.65615845 -1.28125 -0.6559448q-0.828125 2.1362305E-4 -1.28125 0.6409607q-0.453125 0.64071655 -0.453125 2.0000916zm14.75 -0.01928711q0 1.953125 -0.890625 3.1408386q-0.890625 1.1720886 -2.390625 1.1724854q-1.28125 3.0517578E-4 -2.078125 -0.8901062l0 3.984375l-2.25 5.493164E-4l0 -11.703125l2.09375 -5.187988E-4l0.078125 0.8280945q0.8125 -0.9845581 2.140625 -0.9848938q1.5625 -3.9672852E-4 2.421875 1.1556396q0.875 1.1560364 0.875 3.1872864l0 0.109375zm-2.265625 -0.15570068q0 -1.1875 -0.421875 -1.8280029q-0.40625 -0.64053345 -1.203125 -0.6403198q-1.0625 2.4414062E-4 -1.46875 0.8128662l0 3.46875q0.421875 0.8280029 1.484375 0.8277283q1.609375 -3.9672852E-4 1.609375 -2.6410217zm6.3671875 -6.220337l0 2.078125l1.4375 -3.3569336E-4l0 1.65625l-1.4375 3.3569336E-4l0 4.21875q0 0.46875 0.171875 0.6718445q0.1875 0.20306396 0.6875 0.2029419q0.375 -9.1552734E-5 0.671875 -0.06265259l0 1.71875q-0.671875 0.20327759 -1.375 0.2034607q-2.375 5.79834E-4 -2.421875 -2.4056396l0 -4.546875l-1.234375 3.0517578E-4l0 -1.65625l1.234375 -3.0517578E-4l0 -2.078125l2.265625 -5.79834E-4zm5.078125 10.529999l-2.265625 5.493164E-4l0 -8.453125l2.265625 -5.493164E-4l0 8.453125zm-2.390625 -10.640045q0 -0.515625 0.328125 -0.84381104q0.34375 -0.32821655 0.9375 -0.32836914q0.578125 -1.5258789E-4 0.921875 0.32791138q0.34375 0.32803345 0.34375 0.84365845q0 0.515625 -0.359375 0.84384155q-0.34375 0.32818604 -0.921875 0.32833862q-0.5625 1.5258789E-4 -0.90625 -0.32788086q-0.34375 -0.32806396 -0.34375 -0.84368896zm6.3671875 2.185913l0.078125 0.9375q0.890625 -1.0939636 2.421875 -1.0943604q1.640625 -3.9672852E-4 2.25 1.2807007q0.890625 -1.2814941 2.53125 -1.2818909q1.375 -3.3569336E-4 2.046875 0.7963562q0.671875 0.7967224 0.671875 2.4060974l0 5.40625l-2.265625 5.493164E-4l0 -5.390625q0 -0.71875 -0.28125 -1.0467834q-0.28125 -0.34368896 -0.984375 -0.34350586q-1.015625 2.4414062E-4 -1.40625 0.9690857l0 5.8125l-2.25 5.79834E-4l0 -5.390625q0 -0.734375 -0.296875 -1.062439q-0.28125 -0.32806396 -0.984375 -0.32788086q-0.953125 2.4414062E-4 -1.390625 0.7972107l0 5.984375l-2.25 5.79834E-4l0 -8.453125l2.109375 -5.493164E-4zm14.1171875 8.4496155l-2.265625 5.79834E-4l0 -8.453125l2.265625 -5.79834E-4l0 8.453125zm-2.390625 -10.640015q0 -0.515625 0.328125 -0.84384155q0.34375 -0.32821655 0.9375 -0.32836914q0.578125 -1.2207031E-4 0.921875 0.32791138q0.34375 0.32803345 0.34375 0.84365845q0 0.515625 -0.359375 0.84384155q-0.34375 0.32821655 -0.921875 0.32836914q-0.5625 1.2207031E-4 -0.90625 -0.32791138q-0.34375 -0.32803345 -0.34375 -0.84365845zm6.8515625 8.810791l4.125 -0.0010375977l0 1.828125l-7.015625 0.001739502l0 -1.375l3.984375 -5.2509766l-3.859375 9.460449E-4l0 -1.828125l6.765625 -0.0016784668l0 1.328125l-4.0 5.297882zm9.4375 1.9820251q-1.859375 4.5776367E-4 -3.03125 -1.1398621q-1.171875 -1.1403503 -1.171875 -3.0466003l0 -0.21875q0 -1.265625 0.484375 -2.265747q0.5 -1.0157471 1.40625 -1.5472107q0.90625 -0.54711914 2.0625 -0.5473938q1.734375 -4.272461E-4 2.71875 1.0930786q1.0 1.0935059 1.0 3.0935059l0 0.921875l-5.375 0.0013122559q0.109375 0.8280945 0.65625 1.3279724q0.546875 0.49987793 1.390625 0.4996643q1.3125 -3.3569336E-4 2.046875 -0.9380188l1.109375 1.2341003q-0.515625 0.7188721 -1.390625 1.1253357q-0.859375 0.40646362 -1.90625 0.40673828zm-0.265625 -6.937439q-0.671875 1.5258789E-4 -1.09375 0.45339966q-0.40625 0.45321655 -0.53125 1.2969971l3.140625 -7.6293945E-4l0 -0.1875q-0.015625 -0.75 -0.40625 -1.1561584q-0.390625 -0.40615845 -1.109375 -0.40597534z" fill-rule="nonzero"></path><path fill="#000000" fill-opacity="0.0" d="m545.8329 403.73807c20.871887 0 31.306824 -19.007874 41.743835 -38.015747c10.437012 -19.007874 20.876099 -38.015747 41.752197 -38.015747" fill-rule="evenodd"></path><path stroke="#666666" stroke-width="2.0" stroke-linejoin="round" stroke-linecap="butt" stroke-dasharray="16.0,6.0" d="m545.8328 403.73807c20.87201 0 31.306885 -19.007874 41.743896 -38.015747c5.218506 -9.503937 10.437561 -19.007874 16.961487 -26.135834c3.2619019 -3.5639648 6.8500977 -6.533966 10.927551 -8.612946c0.5097046 -0.2598877 1.0269775 -0.50582886 1.5523071 -0.73727417c0.13128662 -0.057861328 0.26312256 -0.11480713 0.39544678 -0.17086792l0.1381836 -0.05731201" fill-rule="evenodd"></path><path fill="#666666" stroke="#666666" stroke-width="2.0" stroke-linecap="butt" d="m618.18524 333.2502l8.274109 -4.9828796l-9.54126 -1.5014038z" fill-rule="evenodd"></path><path fill="#000000" fill-opacity="0.0" d="m441.54843 300.1345c57.31775 -4.5037537 119.74582 -6.583252 180.1962 6.5476685" fill-rule="evenodd"></path><path stroke="#ea4335" stroke-width="2.0" stroke-linejoin="round" stroke-linecap="butt" stroke-dasharray="8.0,6.0" d="m441.54843 300.1345c28.658875 -2.2518616 58.595337 -3.8976746 88.92337 -3.3391724c15.164001 0.27926636 30.425903 1.1096191 45.674988 2.6908264c7.6245117 0.7905884 15.24585 1.7689209 22.850098 2.959961c1.901062 0.2977295 3.8010254 0.60876465 5.699768 0.9335022c0.9493408 0.16235352 1.8984375 0.32815552 2.847046 0.497406c0.47436523 0.08465576 0.9486084 0.1701355 1.4227905 0.25650024l1.0129395 0.18640137" fill-rule="evenodd"></path><path fill="#ea4335" stroke="#ea4335" stroke-width="2.0" stroke-linecap="butt" d="m609.32916 307.55875l9.548889 -1.4521484l-8.248291 -5.0255127z" fill-rule="evenodd"></path><path fill="#000000" fill-opacity="0.0" d="m479.86844 265.6561l104.97635 3.8110352l-1.102356 30.551178l-104.97638 -3.8110352z" fill-rule="evenodd"></path><path fill="#ea4335" d="m509.87103 282.46368q-0.060821533 1.6864014 -0.6998291 2.929657q-0.63900757 1.2432861 -1.7724304 1.8900757q-1.1178284 0.6473694 -2.5543823 0.59521484q-1.4053345 -0.05102539 -2.489746 -0.7626953q-1.0838318 -0.7272949 -1.6471863 -2.0142212q-0.563324 -1.2868958 -0.5197754 -2.9270325l0.020263672 -0.5621338q0.060302734 -1.6707764 0.7154541 -2.9290771q0.6551819 -1.2583313 1.7724304 -1.8900757q1.1334534 -0.64682007 2.5543823 -0.59521484q1.4209595 0.051574707 2.5047913 0.7788696q1.0844116 0.71170044 1.6315918 2.0136414q0.56277466 1.3025208 0.5024719 2.9733276l-0.018035889 0.4996643zm-2.354828 -0.6014404q0.0642395 -1.7800903 -0.5427246 -2.7246094q-0.6064148 -0.96014404 -1.7931213 -1.0032349q-1.1711121 -0.042510986 -1.8445435 0.8555298q-0.6728821 0.8824158 -0.7527466 2.6619568l-0.019714355 0.5465088q-0.06311035 1.7488708 0.5421753 2.7402344q0.60583496 0.9757385 1.8081665 1.0193787q1.1867065 0.04309082 1.8445435 -0.85549927q0.67401123 -0.9136658 0.7376709 -2.678131l0.02029419 -0.5621338zm11.474457 2.2145996q-0.07043457 1.9518738 -1.0032959 3.1062927q-0.932251 1.138794 -2.4312744 1.0843811q-1.2803955 -0.04647827 -2.0446167 -0.9654541l-0.14367676 3.981781l-2.2485352 -0.081604004l0.42199707 -11.695526l2.0923462 0.07595825l0.048217773 0.8304138q0.84747314 -0.95425415 2.1747437 -0.9060669q1.5614624 0.05670166 2.378601 1.2433777q0.83270264 1.1872253 0.75946045 3.217163l-0.003967285 0.10928345zm-2.258484 -0.23834229q0.04284668 -1.1867065 -0.35565186 -1.8422241q-0.38287354 -0.65493774 -1.1792603 -0.6838684q-1.0617676 -0.0385437 -1.4970703 0.7586975l-0.12506104 3.4664917q0.39172363 0.8428955 1.4534912 0.8814392q1.6083374 0.058380127 1.7035522 -2.580536zm6.587219 -5.9837036l-0.07489014 2.0767822l1.4365234 0.05215454l-0.059692383 1.6551819l-1.4365845 -0.05215454l-0.15209961 4.2160034q-0.016906738 0.46844482 0.14752197 0.67767334q0.18005371 0.20977783 0.67974854 0.22793579q0.37469482 0.01361084 0.673645 -0.038085938l-0.061950684 1.7176208q-0.678772 0.17861938 -1.3814087 0.15310669q-2.3734741 -0.08615112 -2.3335571 -2.4925537l0.16400146 -4.543915l-1.2335815 -0.044769287l0.059692383 -1.6551819l1.2335815 0.044799805l0.07495117 -2.0767822l2.2640991 0.08218384zm4.6950684 10.708649l-2.2641602 -0.082214355l0.30480957 -8.447601l2.2641602 0.08218384l-0.30480957 8.447632zm-2.005371 -10.720428q0.018615723 -0.5152893 0.3583374 -0.8312988q0.35534668 -0.3154602 0.94873047 -0.2939148q0.57769775 0.020965576 0.9094238 0.36135864q0.33166504 0.34039307 0.31311035 0.8556824q-0.018615723 0.5152893 -0.3895874 0.8301697q-0.35534668 0.3154297 -0.93310547 0.2944641q-0.5621338 -0.02041626 -0.8937988 -0.36080933q-0.33172607 -0.34036255 -0.31311035 -0.85565186zm6.2841187 2.4170532l0.04425049 0.9397278q0.9295044 -1.06073 2.4597168 -1.0051575q1.6395874 0.059509277 2.2023315 1.36203q0.93621826 -1.2481079 2.5758057 -1.1885681q1.3740845 0.049865723 2.0167847 0.87060547q0.6427002 0.82073975 0.58465576 2.4290771l-0.19494629 5.40271l-2.2640991 -0.08218384l0.19433594 -5.3871155q0.025939941 -0.71829224 -0.24328613 -1.0563965q-0.26867676 -0.35372925 -0.9713745 -0.37924194q-1.0149536 -0.036834717 -1.4402466 0.91711426l-0.20959473 5.808716l-2.2484741 -0.08163452l0.19433594 -5.3871155q0.026489258 -0.73391724 -0.25836182 -1.0726013q-0.26922607 -0.33810425 -0.9718628 -0.36361694q-0.95251465 -0.034576416 -1.418457 0.74591064l-0.21582031 5.9804688l-2.2484741 -0.081604004l0.30480957 -8.447632l2.1079712 0.07650757zm13.803101 8.959808l-2.2641602 -0.08218384l0.30480957 -8.447632l2.2641602 0.08218384l-0.30480957 8.447632zm-2.005371 -10.720428q0.018554688 -0.5152893 0.3583374 -0.8312988q0.35534668 -0.3154602 0.94873047 -0.2939148q0.57769775 0.020996094 0.9094238 0.36135864q0.33166504 0.34039307 0.31311035 0.8556824q-0.018615723 0.5152893 -0.3895874 0.8301697q-0.35534668 0.3154297 -0.93310547 0.2944641q-0.5621338 -0.02041626 -0.8937988 -0.36080933q-0.33172607 -0.34036255 -0.31311035 -0.85565186zm6.529297 9.055328l4.1222534 0.1496582l-0.06591797 1.8269348l-7.0109863 -0.2545166l0.049560547 -1.374115l4.1710815 -5.1020203l-3.8568726 -0.14001465l0.06591797 -1.8269348l6.7611694 0.24545288l-0.047851562 1.32724l-4.1883545 5.1483154zm9.35968 2.32547q-1.8580933 -0.06744385 -2.9880981 -1.2498474q-1.1299438 -1.1824036 -1.0612183 -3.0874023l0.007873535 -0.21862793q0.045654297 -1.264801 0.56573486 -2.2465515q0.5363159 -0.9968262 1.4611206 -1.494873q0.925354 -0.51364136 2.0808716 -0.4716797q1.7332153 0.062927246 2.6774902 1.1916809q0.9598999 1.129303 0.8878174 3.1280212l-0.03326416 0.92126465l-5.37146 -0.19500732q0.07946777 0.83154297 0.60791016 1.3510742q0.5285034 0.51950073 1.3717041 0.55010986q1.3116455 0.04763794 2.0793457 -0.86260986l1.064148 1.2738037q-0.54125977 0.69958496 -1.4302979 1.073822q-0.8734741 0.3748169 -1.9196777 0.3368225zm-0.015258789 -6.942627q-0.67144775 -0.024353027 -1.109375 0.41314697q-0.42230225 0.43811035 -0.5776367 1.2767639l3.1385498 0.11395264l0.006713867 -0.18737793q0.011474609 -0.75009155 -0.3642578 -1.170227q-0.37573242 -0.42016602 -1.0939941 -0.44625854z" fill-rule="nonzero"></path></g></svg>

